<svg xmlns="http://www.w3.org/2000/svg" viewBox="0 0 57.27 54.86"><defs><style>.cls-1{fill:#9db0c1;}</style></defs><title>4PL</title><g id="Слой_2" data-name="Слой 2"><g id="Слой_11" data-name="Слой 11"><path class="cls-1" d="M20.18,28.58h3v.59a.27.27,0,0,1-.07.2.32.32,0,0,1-.23.07H20.18v4.63h-1V29.45H11.6a.4.4,0,0,1-.26-.07.38.38,0,0,1-.13-.2l-.1-.54,8.1-10.72h1Zm-1-8.45q0-.19,0-.41c0-.14,0-.29,0-.44l-7,9.3H19.2Z"/><path class="cls-1" d="M28,27.58v6.5H26.81V17.94H31a6.4,6.4,0,0,1,4.28,1.24,4.43,4.43,0,0,1,1.44,3.54,4.77,4.77,0,0,1-.39,2,4.33,4.33,0,0,1-1.13,1.53,5.31,5.31,0,0,1-1.8,1,7.45,7.45,0,0,1-2.39.36Zm0-.93h3a5.77,5.77,0,0,0,1.92-.3,4.23,4.23,0,0,0,1.43-.82,3.57,3.57,0,0,0,.9-1.24,3.83,3.83,0,0,0,.31-1.56,3.6,3.6,0,0,0-1.15-2.86,5.05,5.05,0,0,0-3.41-1H28Z"/><path class="cls-1" d="M41.61,33.08h7.65v1H40.45V17.94h1.16Z"/><path class="cls-1" d="M3.64,54.86a1.24,1.24,0,0,1-1.22-1L0,39.46A1.13,1.13,0,0,1,.8,38.08L1.31,38a.48.48,0,1,1,.16,1S.9,39,1,39.3L3.37,53.66a.27.27,0,0,0,.11.18.27.27,0,0,0,.2,0l13.05-2.18a.28.28,0,0,0,.18-.11.27.27,0,0,0,0-.2L14.57,37a.28.28,0,0,0-.31-.22L3.65,38.58a.27.27,0,0,0-.18.11.27.27,0,0,0,0,.2l.13.8a.28.28,0,0,0,.31.22l8.35-1.39a1.24,1.24,0,0,1,1.43,1l.22,1.32a1.24,1.24,0,0,1-1,1.43L4.5,43.69a.27.27,0,0,0-.18.11.27.27,0,0,0,0,.2l.24,1.44a.28.28,0,0,0,.31.22l8.55-1.43a1.24,1.24,0,0,1,1.43,1l.24,1.44a1.24,1.24,0,0,1-1,1.43L5.68,49.51a.28.28,0,0,0-.22.31l.22,1.32a.28.28,0,0,0,.31.22l7.27-1.21a.48.48,0,0,1,.16,1L6.15,52.33a1.24,1.24,0,0,1-1.43-1L4.5,50a1.24,1.24,0,0,1,1-1.43l8.36-1.39a.27.27,0,0,0,.22-.31l-.24-1.44a.28.28,0,0,0-.31-.22L5,46.62a1.24,1.24,0,0,1-1.43-1l-.24-1.44a1.24,1.24,0,0,1,1-1.43l8.35-1.39a.28.28,0,0,0,.22-.31l-.22-1.32a.27.27,0,0,0-.31-.22L4,40.88a1.24,1.24,0,0,1-1.43-1l-.13-.8a1.24,1.24,0,0,1,1-1.43l10.6-1.77a1.24,1.24,0,0,1,1.43,1l2.39,14.36a1.24,1.24,0,0,1-1,1.43L3.84,54.84l-.2,0Zm0,0"/><path class="cls-1" d="M30.9,0A26.84,26.84,0,0,0,5,35.33a.37.37,0,0,0,.43.24h0a.35.35,0,0,0,.25-.46A26.07,26.07,0,1,1,19.34,50.45a.34.34,0,0,0-.48.21v0a.33.33,0,0,0,.18.39,26.74,26.74,0,0,0,12,2.54,27.28,27.28,0,0,0,26.3-26.58A26.82,26.82,0,0,0,30.9,0Z"/></g></g></svg>