<svg xmlns="http://www.w3.org/2000/svg" viewBox="0 0 40.87 38.15"><defs><style>.cls-1{fill:#24b8eb;}</style></defs><title>About Us</title><g id="Слой_2" data-name="Слой 2"><g id="Слой_11" data-name="Слой 11"><path class="cls-1" d="M13.72,6.72A6.72,6.72,0,1,0,20.44,0a6.72,6.72,0,0,0-6.72,6.72Zm12,0a5.3,5.3,0,1,1-5.3-5.31,5.31,5.31,0,0,1,5.3,5.31Zm0,0"/><path class="cls-1" d="M7.78,6.41a5.51,5.51,0,1,0,5.51,5.51A5.52,5.52,0,0,0,7.78,6.41Zm0,9.62a4.1,4.1,0,1,1,4.1-4.1A4.11,4.11,0,0,1,7.78,16Zm0,0"/><path class="cls-1" d="M33.09,17.43a5.51,5.51,0,1,0-5.51-5.51,5.52,5.52,0,0,0,5.51,5.51Zm0-9.62a4.1,4.1,0,1,1-4.1,4.1,4.11,4.11,0,0,1,4.1-4.1Zm0,0"/><path class="cls-1" d="M35.51,18.43H30.63a5.29,5.29,0,0,0-1.31.16A6.53,6.53,0,0,0,23.51,15h-6.1a6.53,6.53,0,0,0-5.82,3.58,5.34,5.34,0,0,0-1.36-.18H5.36A5.37,5.37,0,0,0,0,23.79V37.45a.71.71,0,0,0,1.41,0V23.79a4,4,0,0,1,3.95-3.95h4.88a4,4,0,0,1,.85.1,6.53,6.53,0,0,0-.2,1.61v15.9a.71.71,0,0,0,1.41,0V21.55a5.1,5.1,0,0,1,.31-1.75l0-.06,0-.08A5.12,5.12,0,0,1,17,16.45V19a.71.71,0,0,0,.71.71h.7l-1.9,14a.71.71,0,0,0,.26.65L20,36.91a.71.71,0,0,0,.88,0l3.24-2.59a.71.71,0,0,0,.26-.65l-1.9-14h.7A.71.71,0,0,0,23.9,19V16.45a5.12,5.12,0,0,1,4.34,3.18l0,.08,0,.08a5.09,5.09,0,0,1,.31,1.75v15.9a.71.71,0,1,0,1.41,0V21.55a6.52,6.52,0,0,0-.2-1.62,3.92,3.92,0,0,1,.81-.08h4.88a4,4,0,0,1,3.95,3.95V37.45a.71.71,0,0,0,1.41,0V23.79a5.37,5.37,0,0,0-5.36-5.36Zm-13-2v1.87H18.43V16.44Zm.46,17-2.49,2-2.49-2,1.87-13.75h1.23Zm0,0"/></g></g></svg>