<svg xmlns="http://www.w3.org/2000/svg" viewBox="0 0 64.24 22.83"><defs><style>.cls-1{fill:#9db0c1;}</style></defs><title>Air Freight</title><g id="Слой_2" data-name="Слой 2"><g id="Слой_11" data-name="Слой 11"><path class="cls-1" d="M35.83,8.1l-.91-.25a11.17,11.17,0,0,0-2.87-.33A11.3,11.3,0,0,0,29,7.89l-.59.17c-1.78.53-3.18,1.93-3.18,3.18s1.51,2.37,3.44,2.37h6.94c1.93,0,3.44-1,3.44-2.37s-1.4-2.64-3.2-3.14Zm-.24,4.54H28.65c-1.32,0-2.47-.65-2.47-1.4s1-1.82,2.49-2.26l.59-.17a10.5,10.5,0,0,1,2.8-.34,10.11,10.11,0,0,1,2.61.3l.91.25c1.47.41,2.49,1.5,2.49,2.21s-1.15,1.4-2.47,1.4Zm0,0"/><path class="cls-1" d="M62.17,13.06,41.43,8.48a2.91,2.91,0,0,1-1.88-1.71C39.47,6.49,37.31,0,31.8,0s-7.27,6.57-7.28,6.64a2.67,2.67,0,0,1-1.76,1.72L2.07,13.05A2.75,2.75,0,0,0,0,15.65v.73a2.2,2.2,0,0,0,2.2,2.2h0l6.35-.09a4.14,4.14,0,0,0,8.22-1,.35.35,0,0,1,.13-.22c.88-.86,4.72-1.09,7.12-1,1.23,2.17,4.22,6.62,8,6.62s6.82-4.5,8-6.7c2.55-.07,6.65.15,7.61,1.07a.4.4,0,0,1,.15.27,4.14,4.14,0,1,0,8.22,1l5.94.09a2.2,2.2,0,0,0,2.23-2.2v-.73a2.74,2.74,0,0,0-2.08-2.59Zm1.11,3.32A1.23,1.23,0,0,1,62,17.61l-6.1-.1h-.3a.48.48,0,0,0-.48.48A3.16,3.16,0,0,1,52,21.16,3.21,3.21,0,0,1,49.65,20a3.15,3.15,0,0,1-.83-2.45s0-.1,0-.1a1.37,1.37,0,0,0-.45-.94c-1.61-1.55-8.59-1.33-8.6-1.33a.46.46,0,0,0-.39.25c-.82,1.51-3.76,6.44-7.33,6.44S25.59,17,24.76,15.49a.44.44,0,0,0-.41-.25c-.67,0-6.58-.15-8.09,1.31a1.3,1.3,0,0,0-.42.89s0,.09,0,.1A3.15,3.15,0,0,1,15,20a3.21,3.21,0,0,1-2.33,1.15A3.16,3.16,0,0,1,9.52,18h0c0-.43-.17-.47-.38-.46l-6.93.09A1.23,1.23,0,0,1,1,16.38v-.73A1.8,1.8,0,0,1,2.29,14L23,9.3a3.59,3.59,0,0,0,2.49-2.42C25.47,6.82,27,1,31.8,1s6.81,6,6.83,6.1a3.84,3.84,0,0,0,2.59,2.36L62,14a1.79,1.79,0,0,1,1.32,1.64Zm0,0"/></g></g></svg>