<svg xmlns="http://www.w3.org/2000/svg" viewBox="0 0 56.22 57.87"><defs><style>.cls-1{fill:#24b8eb;}</style></defs><title>BRAZIL2</title><g id="Слой_2" data-name="Слой 2"><g id="Слой_11" data-name="Слой 11"><path class="cls-1" d="M19.33,1.67a1.27,1.27,0,0,0,.2.22A2.27,2.27,0,0,0,19.16,3,3.44,3.44,0,0,0,20,5.59a2.55,2.55,0,0,0,1.88,1,1.56,1.56,0,0,0,.91-.28,1.69,1.69,0,0,0,1-.39,1.4,1.4,0,0,0,.6-.26l.2.05a3.23,3.23,0,0,0,.81.14,1.42,1.42,0,0,0,.7-.17,1.36,1.36,0,0,0,.64-.8l.3,0,.16,0a2,2,0,0,0,1.48.65,2.74,2.74,0,0,0,.82-.14.85.85,0,0,1,.27,0h.27A1.58,1.58,0,0,0,31.66,4,2.74,2.74,0,0,1,32,3.39a3.19,3.19,0,0,0,.64,1.46,4.12,4.12,0,0,0,.83.67l0,0a4.11,4.11,0,0,1-.56.92,1.72,1.72,0,0,0-1.44,1.29,1.51,1.51,0,0,0,.76,1.74A1.38,1.38,0,0,0,33,9.7c.36,0,1-.15,1.19-1.18l0-.08h.22a3.91,3.91,0,0,1,.93.12,1.79,1.79,0,0,1-.49.51,1.27,1.27,0,0,0-.63,1.42,1.29,1.29,0,0,0,1.26.93,1.62,1.62,0,0,0,1.37-.85h.09a1.17,1.17,0,0,0,1.15-1.28,3.41,3.41,0,0,1,.72.21,12.68,12.68,0,0,1,2.63,1.26L41.3,11a1.43,1.43,0,0,0-.09,1.46,1.06,1.06,0,0,0,.9.49,1.3,1.3,0,0,0,.46-.09,3.32,3.32,0,0,0,.84-.52,3.74,3.74,0,0,1,.49-.34,5.25,5.25,0,0,1,.52.21,5,5,0,0,0,2,.53,2.79,2.79,0,0,0,.73-.1,3.44,3.44,0,0,1,.91-.13,3,3,0,0,1,2.26,1.14,5.63,5.63,0,0,0,4,2.15h.38l0,.06c0,.2.1.41.16.63A4.62,4.62,0,0,1,55,19.41a5.72,5.72,0,0,1-1.45,2.25l-.19.06a2.39,2.39,0,0,0-1.7,1.53l-.11.29c-.12.3-.3.79-.47,1.13l-.23-.09a1.21,1.21,0,0,0-.33,0,1.33,1.33,0,0,0-1.26,1,1.14,1.14,0,0,0,.1.8,6.11,6.11,0,0,0-.25,2.26,7.84,7.84,0,0,0,.08,1,3.1,3.1,0,0,1,0,1.43A3.33,3.33,0,0,0,49,32.62a1.44,1.44,0,0,0-.76,1.28,4.15,4.15,0,0,1-.08.59,7.72,7.72,0,0,0-.13.89,1.38,1.38,0,0,0-.5.72c0,.11-.06.23-.1.36a2.62,2.62,0,0,1-.15.48,2.38,2.38,0,0,0-.93,1.87A1.82,1.82,0,0,0,45,40h-.35c-.2,0-.5,0-.79-.07a9.63,9.63,0,0,0-1-.08,1.75,1.75,0,0,0-1.2.38l-.28.28a1.7,1.7,0,0,1-.41.35,1.42,1.42,0,0,0-.72.42,3.36,3.36,0,0,0-2.39,1.1,8.33,8.33,0,0,1-1.19,1.07,1.22,1.22,0,0,0-1.16,1.31.6.6,0,0,1,0,.18,3,3,0,0,0-.25,2.17c0,.18.05.37.07.56a5.72,5.72,0,0,1,0,1.09,3.53,3.53,0,0,0-1.73,2l-.2.42a1.3,1.3,0,0,0-.47-.08,1.93,1.93,0,0,0-.81.2,1.58,1.58,0,0,0-1,1.65v0h0a2.44,2.44,0,0,0-.81,1.52,1.28,1.28,0,0,1-.14.46l-.09.18A2.3,2.3,0,0,0,29,54l-.11-.07a3.39,3.39,0,0,0-.71-.52,3.54,3.54,0,0,1-.79-.58,1.31,1.31,0,0,0-1.09-.62l-.22,0L25.87,52a2.86,2.86,0,0,0-.49-.47l.19-.29a10,10,0,0,1,2.15-2.27,5.43,5.43,0,0,1,.66-.32c.66-.29,1.22-.53,1.46-1.11.17-.43.29-2.92-.74-3.44L28.88,44c.19-1,.35-2.05-.59-2.52a1.67,1.67,0,0,0-.76-.18,1.81,1.81,0,0,0-.43.05c-.07-.19-.13-.4-.18-.57s-.55-2-1.84-2a1.2,1.2,0,0,0-.35.05,3.52,3.52,0,0,0-.73-.13,2.59,2.59,0,0,0-.2-1.58,1.22,1.22,0,0,0,.13-.36,1.27,1.27,0,0,0,0-.64A1.89,1.89,0,0,0,24.13,35a2.64,2.64,0,0,1,.08-.37,2.85,2.85,0,0,0,0-1.67,2.46,2.46,0,0,0-.68-1l-.11-.11c0-.78-.35-1.68-1.85-1.68h-.55a2.12,2.12,0,0,1-.37,0,2.42,2.42,0,0,0-.15-.47,1.15,1.15,0,0,0,.11-.26,1.39,1.39,0,0,0-.26-1.15l0-.06a1.87,1.87,0,0,0-.82-1.67l-.08-.07a1.7,1.7,0,0,0-1.16-.34H18a1.92,1.92,0,0,0-1.47-.76,1.21,1.21,0,0,0-1-.53h0a1.67,1.67,0,0,0-.86-.22l-.32,0h-.07c-.11,0-.34-.22-.72-.67a2.81,2.81,0,0,1-.27-1.84,1.15,1.15,0,0,0-.16-1,1.21,1.21,0,0,0-1-.47,4.3,4.3,0,0,0-.67.07,3.7,3.7,0,0,1-.43.05,3.58,3.58,0,0,0-1.85.69l-.33.2a3.72,3.72,0,0,1-.51.24,2.46,2.46,0,0,0-.92.55.21.21,0,0,1-.15.06h0a4.42,4.42,0,0,0-1.39-.21H5.66c0-.16,0-.31,0-.4s0-.25,0-.34A1.2,1.2,0,0,0,4.5,20.2a1.5,1.5,0,0,0-1.17.67h-.4a1.16,1.16,0,0,0-.9-.79A2.9,2.9,0,0,0,1.49,19l-.18-.27-.08-.12-.17-.26a1.35,1.35,0,0,0,.1-.62,1.31,1.31,0,0,0,.76-1.47L2,16.18a2.69,2.69,0,0,0,.34-.73A3,3,0,0,0,3.27,15a.94.94,0,0,1,.45-.13,2.55,2.55,0,0,0,1.21-.45,2,2,0,0,0,.56.09,1.48,1.48,0,0,0,.32,0c1.27-.28,1.33-2.47,1.33-2.91A9.89,9.89,0,0,1,7.4,9.87a2.32,2.32,0,0,0-.56-2.06l-.18-.25a1.85,1.85,0,0,0,.42-.23A1.28,1.28,0,0,0,7.68,6V6H8a3.7,3.7,0,0,0,1.07-.21L9.2,6a3,3,0,0,0,.64.8l.15.12a1.7,1.7,0,0,0,1.12.51,1.45,1.45,0,0,0,.73-.21h0a1.28,1.28,0,0,0,.4.06,2.17,2.17,0,0,0,1.41-.73l0,0h0a1.35,1.35,0,0,0,1.26-1l0-.07h0A1.4,1.4,0,0,0,16.19,4a1.22,1.22,0,0,0-.25-.65A1.2,1.2,0,0,0,17,2.5h.13A3.76,3.76,0,0,0,18.74,2l.37-.18.22-.1M19.6,0c-.5,0-.44.7-.81.82a7.35,7.35,0,0,1-1.67.69H17l-.22,0c-.38,0-.76.18-.76.58,0,.21-.1.3-.21.3A.41.41,0,0,1,15.51,2c-.08-.38-1-.17-1.24-.43a.85.85,0,0,0-.54-.14c-.37,0-.72.12-.4.31a1,1,0,0,1,.56,1.07c0,.47.38.34.38.9,0,.23.08.3.18.3s.37-.13.54-.13.3.51-.17.6a1,1,0,0,0-.81.77c-.13.43-.55.13-.94.47s-.6.56-.83.56a.26.26,0,0,1-.15,0,.43.43,0,0,0-.25-.08,1.16,1.16,0,0,0-.52.21.43.43,0,0,1-.21.07c-.18,0-.33-.16-.64-.41s-.52-.87-1.09-1.44A4.35,4.35,0,0,1,8,5L6.88,5c-.51,0-1,0-1,.18a.7.7,0,0,0,.37.78c.26.06.8.21.29.58s-1-.13-1,.77,1.15,1.48.91,2.31a10.62,10.62,0,0,0-.29,1.94c0,.42-.17,1.85-.55,1.93H5.49c-.21,0-.41-.12-.64-.12a.72.72,0,0,0-.47.19c-.5.42-1.14.17-1.72.63s-1.22.29-1.26.84-.59.84-.46,1.35-.25.38-.63.76,0,.63-.21.93.08.76.38,1.22.63.8.59,1.22.23.55.59.55H1.8c.38,0,.07.8.73.8.32,0,.63,0,.9,0s.53,0,.62-.25.31-.43.46-.43.17.08.17.3c0,.52-.11,1.86.27,1.86H5a2.5,2.5,0,0,1,.8-.11,3.36,3.36,0,0,1,1.05.15,1.1,1.1,0,0,0,.38.07,1.21,1.21,0,0,0,.84-.36c.29-.29.63-.29,1.22-.63A3.94,3.94,0,0,1,11,21.71c.34,0,.82-.13,1.11-.13s.29,0,.24.21a3.71,3.71,0,0,0,.46,2.78c.6.71,1,1,1.48,1h.39c.4,0,.41.23.75.23h.12c.39,0,.14.51.54.51s1.18.08,1.18.55c0,.21.27.25.59.25h.47a.86.86,0,0,1,.5.1c.29.25.63.46.55,1s.63.88.21,1.09.13.63.17,1.18.54.72,1.33.72h.55c.66,0,.85.14.85.73s.63.76.84,1.39-.25,1.34-.17,1.85a1,1,0,0,1-.43,1c.32.41.35.6.06.76s.47.81.26,1.75-.26,1.11.73,1.15a4,4,0,0,1,1,.2.39.39,0,0,0,.21-.08.2.2,0,0,1,.11,0c.33,0,.76.8.88,1.23s.51,1.58.68,1.58.49-.33.89-.33a.67.67,0,0,1,.31.07c.48.24-.12,1.84-.13,2.54H28a1.83,1.83,0,0,1,.62.07,4,4,0,0,1,.26,2.17c-.13.32-1.18.61-1.73,1a10.77,10.77,0,0,0-2.46,2.59,11.22,11.22,0,0,1-1.25,1.5h.19a.59.59,0,0,0,.24,0,.79.79,0,0,1,.32-.07,1.19,1.19,0,0,1,.89.52c.46.56.45,1,.62,1h0c.14,0,.3-.42.52-.42s.17.05.28.2c.38.54,1.37,1,1.6,1.21s1,.45,1,1.12a4.41,4.41,0,0,0,.15,2.16,3.14,3.14,0,0,1,.66-.66c.88-.63.66-1,1.07-1.77s.06-1.07.76-1.74-.13-1.1.76-1.51a1,1,0,0,1,.39-.11c.42,0,.23.66-.36,1.4-.44.56-.66.87-.55.87a2.19,2.19,0,0,0,.65-.4,6.59,6.59,0,0,0,1.83-2.78c.54-1.1.95-1.45,1.42-1.51s.47-1.23.41-2-.32-1.58,0-2.11,0-1,.44-1,1.1-.66,1.8-1.36a2.44,2.44,0,0,1,1.86-.82c.73-.06.32-.32.79-.44s.79-.57,1.1-.85a.84.84,0,0,1,.53-.12c.54,0,1.31.15,1.84.15h.44c.5,0,.82,0,.82-.41a.82.82,0,0,1,.79-.85c.44,0,.63-.13.63-.76a1.45,1.45,0,0,1,.57-1.29c.38-.28.44-.91.57-1.32s.54-.16.54-.76.22-1.26.22-1.74.5-.41.73-.76-.19-.79.16-1.77a7.46,7.46,0,0,0,0-2.78c0-.88,0-1.8.32-2.08s.16-.44-.09-.57,0-.42.2-.42h.06c.17,0,.37.36.65.36a.44.44,0,0,0,.24-.07,5.88,5.88,0,0,0,1.14-2.21c.35-.88.92-.85,1.36-1a5.74,5.74,0,0,0,2-2.81c.6-1.54,0-3.06-.28-4.13-.17-.73-.39-.86-.7-.86-.15,0-.32,0-.53,0h-.14c-.66,0-1.8-.24-3.27-1.83a4,4,0,0,0-3-1.46,4.44,4.44,0,0,0-1.17.17,1.77,1.77,0,0,1-.47.06A9.27,9.27,0,0,1,44.07,11l-.17,0c-.63,0-1.23.76-1.69.93l-.11,0c-.27,0,.36-.83.39-1.38s-1.89-1.45-3.34-2a3.54,3.54,0,0,0-1.23-.29c-.59,0-.85.33-.85.92,0,.29-.06.37-.15.37s-.24-.09-.4-.09-.31.08-.46.41-.41.52-.6.52-.45-.3-.13-.49a3.22,3.22,0,0,0,1.23-1.64c.15-.47-1.2-.86-2.17-.86a2,2,0,0,0-.7.1C33,7.8,33.3,8.7,33,8.7a.43.43,0,0,1-.19-.06c-.62-.34-.14-1.17.35-1.17h.05c.5,0,1.06-1,1.4-1.77s-.6-.88-1.17-1.51-.45-2.44-1-2.73a7.4,7.4,0,0,0-1.68,2.27c-.17.51-.37.56-.65.56h-.27a1.82,1.82,0,0,0-.57.08,1.74,1.74,0,0,1-.52.09,1,1,0,0,1-.89-.52.43.43,0,0,0-.39-.15c-.31,0-.73.11-1.08.11h-.15c-.49,0-.18.69-.55.9a.43.43,0,0,1-.21,0c-.33,0-.81-.21-1.16-.21a.43.43,0,0,0-.34.13.46.46,0,0,1-.37.19h-.12a.23.23,0,0,0-.23.16c-.17.34-.77.13-.94.34a.5.5,0,0,1-.4.16,1.65,1.65,0,0,1-1.14-.67,2.19,2.19,0,0,1-.3-2.52.75.75,0,0,0-.13-1.2c-.47-.21,0-1.11-.6-1.2Z"/></g></g></svg>