<svg xmlns="http://www.w3.org/2000/svg" viewBox="0 0 56.22 57.87"><defs><style>.cls-1{fill:#24b8eb;}</style></defs><title>BRAZIL</title><g id="Слой_2" data-name="Слой 2"><g id="Слой_11" data-name="Слой 11"><path class="cls-1" d="M29.91,57.21c.88-.63.66-1,1.07-1.77s.06-1.07.76-1.74-.13-1.1.76-1.51.76.38,0,1.29-.85,1.17.09.47a6.59,6.59,0,0,0,1.83-2.78c.54-1.1.95-1.45,1.42-1.51s.47-1.23.41-2-.32-1.58,0-2.11,0-1,.44-1,1.1-.66,1.8-1.36a2.44,2.44,0,0,1,1.86-.82c.73-.06.32-.32.79-.44s.79-.57,1.1-.85,1.61,0,2.37,0,1.26.06,1.26-.41a.82.82,0,0,1,.79-.85c.44,0,.63-.13.63-.76a1.45,1.45,0,0,1,.57-1.29c.38-.28.44-.91.57-1.32s.54-.16.54-.76.22-1.26.22-1.74.5-.41.73-.76-.19-.79.16-1.77a7.46,7.46,0,0,0,0-2.78c0-.88,0-1.8.32-2.08s.16-.44-.09-.57,0-.47.25-.41.47.54.88.28a5.88,5.88,0,0,0,1.14-2.21c.35-.88.92-.85,1.36-1a5.74,5.74,0,0,0,2-2.81c.6-1.54,0-3.06-.28-4.13s-.6-.85-1.23-.82S52.62,14.69,51,13a3.86,3.86,0,0,0-4.16-1.29c-1,.28-2.11-.5-2.81-.66s-1.36.73-1.86.91.25-.76.28-1.36-1.89-1.45-3.34-2-2.08-.28-2.08.63-.57-.28-1,.69-1.26.35-.73,0a3.22,3.22,0,0,0,1.23-1.64c.19-.6-2.08-1.07-2.87-.76s-.28,1.45-.92,1.1-.13-1.2.38-1.17,1.07-1,1.42-1.77-.6-.88-1.17-1.51-.45-2.44-1-2.73a7.39,7.39,0,0,0-1.68,2.27c-.3.9-.68.38-1.5.64a1.08,1.08,0,0,1-1.41-.43c-.21-.34-1,0-1.58,0s-.21.68-.6.9-1.37-.43-1.71,0-.55,0-.73.34-.77.13-.94.34-.77.34-1.54-.51a2.19,2.19,0,0,1-.3-2.52.75.75,0,0,0-.13-1.2c-.47-.21,0-1.11-.6-1.2s-.51.68-.9.81-1.32.77-1.75.68-1,.09-1,.55-.47.34-.56,0-1-.17-1.24-.43-1.45-.13-.94.17a1,1,0,0,1,.56,1.07c0,.47.38.34.38.9s.43.17.73.17.3.51-.17.6a1,1,0,0,0-.81.77c-.13.43-.56.13-.94.47s-.73.68-1,.51-.47,0-.77.13-.43,0-.85-.34-.52-.87-1.09-1.44A4.35,4.35,0,0,1,8,5c-.5,0-2.06-.11-2.15.16a.7.7,0,0,0,.37.78c.26.06.8.21.29.58s-1-.13-1,.77,1.15,1.48.91,2.31a10.61,10.61,0,0,0-.29,1.94c0,.42-.17,1.85-.55,1.93s-.72-.33-1.22.09-1.14.17-1.72.63-1.22.29-1.26.84-.59.84-.46,1.35-.25.38-.63.76,0,.63-.21.93.08.76.38,1.22.63.8.59,1.22.29.59.71.55.08.8.76.8S3.87,22,4,21.63s.63-.67.63-.13-.13,2,.34,1.85a3.45,3.45,0,0,1,1.85,0,1.16,1.16,0,0,0,1.22-.29c.29-.29.63-.29,1.22-.63A3.94,3.94,0,0,1,11,21.71c.55,0,1.47-.34,1.35.08a3.71,3.71,0,0,0,.46,2.78c.67.8,1.05,1.09,1.68,1s.55.25,1,.21.17.5.59.5,1.18.08,1.18.55,1.26.08,1.56.34.63.46.55,1,.63.88.21,1.09.13.63.17,1.18.63.76,1.56.71,1.18,0,1.18.72.63.76.84,1.39-.25,1.34-.17,1.85a1,1,0,0,1-.43,1c.32.41.35.6.06.76s.47.81.26,1.75-.26,1.11.73,1.15.9.34,1.24.13.85.73,1,1.2.51,1.58.68,1.58.68-.51,1.2-.26-.12,1.84-.13,2.55a2.93,2.93,0,0,1,.94.06,4,4,0,0,1,.26,2.17c-.13.32-1.18.61-1.73,1a10.78,10.78,0,0,0-2.46,2.59,11.23,11.23,0,0,1-1.25,1.5.82.82,0,0,0,.42,0c.29-.13.74-.13,1.21.45s.45,1,.64,1,.42-.77.8-.22,1.37,1,1.6,1.21,1,.45,1,1.12a4.41,4.41,0,0,0,.15,2.16A3.13,3.13,0,0,1,29.91,57.21Z"/></g></g></svg>