<svg xmlns="http://www.w3.org/2000/svg" viewBox="0 0 104.22 20.15"><defs><style>.cls-1{fill:#24b8eb;}</style></defs><title>CHILE</title><g id="Слой_2" data-name="Слой 2"><g id="Слой_11" data-name="Слой 11"><path class="cls-1" d="M92.57,11.06c.07.56-1,.76-1,1.11s-1.81.42-2.64.14-.42,1.6-.7,2.16-.83-.21-1.53.42-1.67.14-2.15.07S83,14.47,83,13.7s-1.11-.21-1.6-1-1.32.69-1.81.07-1.39,0-1.53-1-1.39,0-1.6-.7-1,.14-1.81-.07-1.46.56-1.81-.35-1-.28-1.53.35-.49-.14-.49-.9-1.25-.35-1,.35-.56,1.32-1.18.7-1,.55-1.46.35a1,1,0,0,0-1.25.21c-.28.42-2.36.14-2.43-.35s-1.95-.14-2.5-.14-1.11.56-1.6.49-.63-.62-1.6-.62-1.39-.21-1.46-.63-1.18-.07-1.74-.14,0-1.18-.9-1.32-.76.69-1.32.56a20.33,20.33,0,0,0-3.06.07c-1.53,0-1.88-1.25-2.29-1.74s-2.64.63-2.92,0-1.32-.21-1.67-.7-1.11-.35-1.95-.63-1.25.55-2,.55a3.5,3.5,0,0,0-2.29.77c-.83.63-2.5.42-2.5,0s-1.6-.21-1.81-1-1.39-.35-2.36,0-.49-.62-1.25-.62a2.47,2.47,0,0,1-2.08-1c-.28-.63-1.46-.7-1.95-.7s-.69-.9-1.11-1.39S22,4,21.61,3.28s-2.15.63-2.5.21S18,3.41,17.44,3.34,15.84,1,15.35.7A9.3,9.3,0,0,0,12.64.23c.47.72.72,1.34.45,1.45-.48.21-1.92-.07-2.53.55s-1.85.21-2.12.82-1.51,1.37-1.92.82-1.23,0-1.64-.48-.48.27-1.3,1-1.85-.27-2.46.55-1.37.82-1,1,1.51.27,1.85,1a3.29,3.29,0,0,0,.36.5,6.69,6.69,0,0,0,2.08,0,18.72,18.72,0,0,1,6-.15,29.76,29.76,0,0,1,3.49.92c.88.31.93-.72,1.34-.31s1.44.26,3.08.26,4.41,1,5.29,1,1.44.72,2.41.62a2.19,2.19,0,0,1,2,1c.46.56,2-.92,2.77-.87s1.18,1.13,2.52.87a26.18,26.18,0,0,1,5.08,0c.56,0,.51.67,1.59.51s1.34.67,2.88.82,3.75,1.34,4.93,1.8,1.85.46,1.85,1.08.67.77,1.7.31,1.9.31,2.93-.31,1.39-.41,2.36-.1,1,.72,1.95.72,1.7.72,2.72.31,1.39-.31,1.39.21.82.77,2.51,1,1.64.15,1.54-1.08-4.16-.26-4.16-1-.67-.1-.87-.87.72-.1.87-.62.57-.87,1-.15,1.39-.15,2,.21,1.18.87,1.85.56.62.36,1.49.41.92-.46,1.13-.1.87-.46,1,.05.77.21,1.39-.1.26.67.67,1.18,1-.51,1.54-.21-.31,1.13-.62,1.49-.92-.56-1.54-1-2,.46-1.7,1.23,1.18-.77,1.85-.77-.15,1.28.56,1.23.46.87,1,1.33,1-.62,1.13-.1.87,1.39,1.39,1.44.62-.56.1-.56-.67-.82,0-1.08,0-.62.15-1.34S78.06,16.56,78,17s.67.82,1.44.72,0-1.54.21-2.16,1.28-.41.92-.05-1,1.18-.36,1.54.31.92.1,1.39.88,2.11,1.28,1.54,1.08-.51,1-.87a1.63,1.63,0,0,0-.72-1.13c-.41-.21-.82-.92.1-1s.46,1,1,1.18a3.4,3.4,0,0,1,1.39,1.23.55.55,0,0,0,1-.51c-.26-.51.61.15.72-.56s-.41-.87-.92-.72-1.64-.36-1.08-1,1.13.31,1.64.31,1.18.36,1.75.36.26.67.87.62.21,1.44.62.77,1,.41,1.39.05S89.76,18,90,17.48s.36-.46.05-1.18.57-1.13.77-.46,1,1.39,1.08,1.08-.51-1.18.15-1.39.46-.72-.26-.77-.1-1.28.51-1.49,1,1.28.82,2.05.72,1.18,1.39.67,0-1.13-.56-1.69-.41-3.34.21-3.54.1,1.28.46,1.44.67,1.28.26,1.44.15,1.23.82,1.28.67.87.92-.05-1-.67-.87-2.11-1.34-2.21-.51-2.62,1.49,1.18,1,1.75.36,1.23,1.13,1.18-.21,1.64-.31,2.46.77.46,1.54-.26-.1-1.13.46-2,1.18-.87.62-1.49-.51,0-.77.41-1.13.05-.67-.92a1.33,1.33,0,0,0-1.64-1.8c-1.23.31-1.8-.87-2.21-2.05s.77-.57,1.13.31.62,1,1.34.36-.46-1.54.1-2.11.46,1,1,1.28,1.23-1,1.64-.1-1.7.46-1.9,1,.26,1,1.44.46.15.62-.41,1.13.26,1.23.87.62-.05,1.18.92,1.18.15-.77.36-1.69,1.54-.51,2.05-1.18-1.64-.1-1.8-.82,1.64-.05,2.16-1.64-.31-.1-.82-.82S104,3.72,104.19,3s-.92-.26-1.54.31-.25-.57,0-1.34.36-1.39-.2-1.54c-.21-.06-.21-.2-.15-.38-.52.8-.14,3.53-.21,3.9s-6.22.08-7.63,0a.69.69,0,0,0,0,.16c0,.67.15,2.16-.87,1.9a.47.47,0,0,1-.34-.27A3.1,3.1,0,0,0,92.5,7,15.73,15.73,0,0,0,92.57,11.06Z"/></g></g></svg>