<svg xmlns="http://www.w3.org/2000/svg" viewBox="0 0 106.22 22.14"><defs><style>.cls-1{fill:#24b8eb;}</style></defs><title>CHILE2</title><g id="Слой_2" data-name="Слой 2"><g id="Слой_11" data-name="Слой 11"><path class="cls-1" d="M103.3,1c-.06.18-.06.33.15.38.56.15.46.77.2,1.54s-.48,1.49-.25,1.49c.05,0,.13,0,.25-.15a2.61,2.61,0,0,1,1.33-.7c.19,0,.29.11.22.39-.21.77-2.26,1.69-1.75,2.41a.44.44,0,0,0,.37.21c.22,0,.44-.16.55-.16s.11.15-.09.77c-.51,1.59-2.31.92-2.16,1.64s2.31.15,1.8.82-1.85.26-2.05,1.18.61,1.69-.36,1.69-.47-1.31-.73-1.31c0,0-.11,0-.2.13a.74.74,0,0,1-.52.24.48.48,0,0,1-.35-.85c.46-.42,1.24-1.26.85-1.26a1.27,1.27,0,0,0-.43.13,2.3,2.3,0,0,1-.89.22c-.51,0-.69-.33-.55-.69.21-.51,2.31-.1,1.9-1-.11-.23-.24-.32-.38-.32-.33,0-.73.46-1.09.46a.4.4,0,0,1-.17,0c-.48-.22-.48-1.4-.82-1.4A.33.33,0,0,0,97.9,7c-.57.56.62,1.44-.1,2.11-.3.28-.52.41-.7.41s-.43-.26-.64-.77-.73-1-1-1-.27.19-.11.65c.37,1.05.85,2.1,1.83,2.1a1.57,1.57,0,0,0,.38,0,1.69,1.69,0,0,1,.41-.05,1.3,1.3,0,0,1,1.23,1.85c-.33.71,0,1.09.36,1.09a.36.36,0,0,0,.31-.17c.18-.29.21-.67.4-.67s.2.07.37.26c.56.62-.05.62-.62,1.49s.31,1.28-.46,2a2.38,2.38,0,0,1-1.26.73c-.21,0-.32-.14-.28-.47.1-.81,1.05-2.47.34-2.47h-.12c-.75,0-1.54-.64-1-1.18s0-1.81-.7-1.81a.6.6,0,0,0-.27.07c-.82.41.61,1.18.51,2.62s1.13,1.18.87,2.1c-.09.33-.15.44-.22.44s-.28-.35-.71-.39c-.67-.05-1.23-1.13-.82-1.28s.1-1.28-.26-1.44.09-1.46-.36-1.46l-.11,0c-.62.21-.77,3-.21,3.54s1.23,1.18.56,1.69a1,1,0,0,1-.64.23.72.72,0,0,1-.75-.9c.14-.72-.16-2.07-.71-2.07l-.11,0c-.62.2-1.23,1.44-.51,1.49s.92.57.26.77-.05,1.08-.15,1.39a.1.1,0,0,1-.1.07c-.24,0-.81-.59-1-1.15a.41.41,0,0,0-.39-.34c-.29,0-.58.34-.38.8.31.72.15.62-.05,1.18s.77.87.36,1.23a.29.29,0,0,1-.19.08c-.27,0-.58-.35-.86-.35a.38.38,0,0,0-.33.22c-.08.12-.12.17-.15.17s0-.94-.43-.94h-.1c-.53,0-.27-.62-.81-.62s-1.23-.36-1.75-.36-.8-.52-1.22-.52a.56.56,0,0,0-.42.21c-.5.54.31,1,.87,1a.73.73,0,0,0,.21,0,1.09,1.09,0,0,1,.31,0,.59.59,0,0,1,.61.77.37.37,0,0,1-.41.36h-.24c-.11,0-.16,0-.06.22a.56.56,0,0,1-.52.77.57.57,0,0,1-.46-.26A3.4,3.4,0,0,0,84,19.13c-.5-.2-.07-1.18-.91-1.18H83c-.92.05-.51.77-.1,1a1.63,1.63,0,0,1,.72,1.13c0,.36-.62.31-1,.87a.25.25,0,0,1-.21.12c-.48,0-1.25-1.26-1.07-1.66s.51-1-.1-1.39,0-1.18.36-1.54c.19-.19,0-.34-.31-.34a.62.62,0,0,0-.61.39c-.21.62.56,2.05-.21,2.16l-.24,0c-.67,0-1.24-.37-1.2-.73,0-.2-.21-.32-.48-.32a.68.68,0,0,0-.71.53c-.15.72.51,1.08-.15,1.33s-.51,1.08,0,1.08.42.57,0,.57h-.06c-.51-.05-1.23-.92-1.39-1.44,0-.1-.08-.14-.13-.14s-.43.36-.72.36a.41.41,0,0,1-.28-.12c-.5-.45-.27-1.34-.92-1.34H74c-.65,0,.13-1.23-.52-1.23s-1.2,1-1.6,1c-.1,0-.18-.06-.25-.22-.25-.63.62-1.36,1.29-1.36a.67.67,0,0,1,.41.12c.52.39,1,1.11,1.37,1.11a.21.21,0,0,0,.17-.08c.31-.36,1.18-1.18.62-1.49a.47.47,0,0,0-.23-.06c-.37,0-.73.41-1,.41a.34.34,0,0,1-.27-.15c-.36-.45-.13-1.24-.47-1.24a.46.46,0,0,0-.2.06,2.9,2.9,0,0,1-1,.38.31.31,0,0,1-.34-.27c0-.13-.09-.17-.17-.17s-.45.22-.65.22a.17.17,0,0,1-.16-.09c-.05-.09-.1-.13-.15-.13a2.17,2.17,0,0,1-.86.24h-.12c-.71,0-.81-.49-1.18-.49a.75.75,0,0,0-.31.08,1,1,0,0,1-.42.09,3,3,0,0,1-1.43-.66.63.63,0,0,0-.35-.09c-.34,0-.73.18-1.06.18a.6.6,0,0,1-.54-.29c-.19-.29-.36-.4-.52-.4s-.41.25-.51.56-.22.22-.39.22h-.23c-.2,0-.35,0-.25.41.2.77.87.1.87.87,0,.33.75.34,1.61.34h.15c1.11,0,2.34,0,2.4.69.08.9.12,1.17-.52,1.17a9.68,9.68,0,0,1-1-.09c-1.69-.21-2.51-.46-2.51-1,0-.3-.12-.46-.43-.46a2.85,2.85,0,0,0-1,.25,1.72,1.72,0,0,1-.65.13c-.73,0-1.35-.43-2.07-.43-.92,0-1-.41-1.95-.72a4.3,4.3,0,0,0-1.22-.3,2.2,2.2,0,0,0-1.14.4,1.75,1.75,0,0,1-.94.25c-.41,0-.8-.1-1.21-.1a1.82,1.82,0,0,0-.77.16,2.62,2.62,0,0,1-1,.27c-.42,0-.67-.2-.67-.58,0-.62-.67-.62-1.85-1.08s-3.39-1.64-4.93-1.8-1.74-.84-2.62-.84l-.26,0-.3,0c-.77,0-.78-.54-1.29-.54s-1.77-.14-3.15-.14a10.73,10.73,0,0,0-1.93.14,2.08,2.08,0,0,1-.39,0c-1,0-1.39-.87-2.12-.91h0c-.69,0-1.82,1-2.44,1a.36.36,0,0,1-.29-.13,2.26,2.26,0,0,0-1.78-1h-.43c-.85,0-1.4-.58-2.21-.63s-3.64-1-5.29-1c-.7,0-1.29,0-1.77,0a1.9,1.9,0,0,1-1.31-.28.27.27,0,0,0-.18-.1c-.22,0-.37.46-.84.46a.93.93,0,0,1-.31-.06,29.77,29.77,0,0,0-3.49-.92A12.82,12.82,0,0,0,9,8a14.84,14.84,0,0,0-3.59.32,2,2,0,0,1-.71.1c-.47,0-1-.08-1.35-.08h0a3.29,3.29,0,0,1-.36-.5c-.34-.68-1.5-.75-1.85-1s.41-.21,1-1a.87.87,0,0,1,.76-.36c.29,0,.6.07.91.07a1.17,1.17,0,0,0,.79-.26c.64-.53.82-1.11,1.07-1.11.07,0,.14,0,.23.15a.76.76,0,0,0,.62.22h.33a.77.77,0,0,1,.68.27.5.5,0,0,0,.42.19,2,2,0,0,0,1.5-1c.27-.62,1.5-.21,2.12-.82s2.05-.34,2.53-.55c.27-.11,0-.74-.45-1.45a9.3,9.3,0,0,1,2.71.47c.49.28,1.53,2.57,2.08,2.64h.17c.3,0,.64-.08.94-.08a.69.69,0,0,1,.56.21.26.26,0,0,0,.21.08c.43,0,1.28-.52,1.84-.52a.46.46,0,0,1,.45.23.38.38,0,0,0,.33.24c.31,0,.68-.42,1-.42a.28.28,0,0,1,.22.11c.42.49.63,1.39,1.11,1.39s1.67.07,1.95.7a2.47,2.47,0,0,0,2.08,1c.65,0,.4.7.9.7a1.08,1.08,0,0,0,.35-.08,5.86,5.86,0,0,1,1.69-.43.61.61,0,0,1,.68.43c.21.77,1.81.56,1.81,1,0,.23.5.4,1.09.4a2.42,2.42,0,0,0,1.41-.4,3.5,3.5,0,0,1,2.29-.77c.65,0,1.05-.61,1.68-.61a1,1,0,0,1,.33.06c.83.28,1.6.14,1.95.63s1.39.07,1.67.7c.06.14.23.2.46.2.57,0,1.49-.32,2.05-.32a.52.52,0,0,1,.41.13c.42.49.76,1.74,2.29,1.74,1.13,0,1.9-.13,2.49-.13a2.34,2.34,0,0,1,.57.06l.12,0c.39,0,.37-.59,1-.59l.19,0c.9.14.35,1.25.9,1.32h.18c.33,0,.77-.08,1.1-.08s.44,0,.46.21c.07.42.49.63,1.46.63s1.11.56,1.6.62h.09c.46,0,1-.49,1.51-.49.33,0,1.11-.12,1.72-.12.42,0,.76.06.79.26s1,.55,1.67.55c.36,0,.67-.06.76-.2a.8.8,0,0,1,.69-.34,1.27,1.27,0,0,1,.56.14l.1,0c.29,0,.6-.56,1-.56a.53.53,0,0,1,.38.18.86.86,0,0,0,.6.28c.42,0,.75-.41.58-1s.3-.76.65-.76a.37.37,0,0,1,.39.41c0,.57,0,1.13.2,1.13s.16-.07.29-.23c.31-.4.71-.8,1-.8s.36.13.49.45.32.45.53.45.59-.14,1-.14a1.28,1.28,0,0,1,.31,0,1.19,1.19,0,0,0,.29,0c.47,0,.89-.25,1.18-.25s.27.07.33.28.24.27.45.27.41,0,.6,0a.48.48,0,0,1,.55.46c.14,1,1,.35,1.53,1a.37.37,0,0,0,.3.16c.35,0,.78-.46,1.14-.46a.42.42,0,0,1,.36.23c.48.76,1.6.21,1.6,1s1,1.18,1.53,1.25a7.18,7.18,0,0,0,1.28.25,1.25,1.25,0,0,0,.87-.31.92.92,0,0,1,.64-.26c.21,0,.4.06.56.06a.34.34,0,0,0,.33-.22c.26-.52-.09-2.18.54-2.18l.15,0a4.69,4.69,0,0,0,1.35.17c.68,0,1.29-.11,1.29-.31s1-.56,1-1.11a15.73,15.73,0,0,1-.07-4.1,3.1,3.1,0,0,1,.72-1.25.47.47,0,0,0,.34.27l.22,0c.78,0,.65-1.31.65-1.93a.69.69,0,0,1,0-.16c.88,0,3.6.17,5.55.17a5.11,5.11,0,0,0,2.08-.19c.06-.37-.32-3.1.21-3.9m0-1a1,1,0,0,0-.82.44c-.5.77-.48,2.09-.4,3.62l-1.05,0c-1.87,0-4.47-.12-5.5-.17h-.05a1,1,0,0,0-1,.75,1.6,1.6,0,0,0-.06.41c0,.08,0,.16,0,.26s0,.25,0,.4h-.22a1,1,0,0,0-.74.33,4,4,0,0,0-.94,1.66,14.53,14.53,0,0,0,0,4.17l-.07,0a2.29,2.29,0,0,0-.63.53,4.18,4.18,0,0,1-.53,0,3.71,3.71,0,0,1-1-.12,1.47,1.47,0,0,0-.47-.08c-1.36,0-1.4,1.55-1.42,2.21v.13h0a1.91,1.91,0,0,0-1.31.52s-.06.06-.2.06a2.77,2.77,0,0,1-.65-.12,4.47,4.47,0,0,0-.49-.11,1.42,1.42,0,0,1-.67-.31c0-.8-.52-1.28-1.49-1.43a1.53,1.53,0,0,1-.3-.06,1.35,1.35,0,0,0-1.17-.66,2,2,0,0,0-1,.33,2.13,2.13,0,0,0-1-.36,1.46,1.46,0,0,0-1.5-1.11l-.32,0a1.29,1.29,0,0,0-1.06-.53,2.49,2.49,0,0,0-.75.15,1.77,1.77,0,0,1-.43.1,2.73,2.73,0,0,0-.6-.07,3.16,3.16,0,0,0-.67.08,1.46,1.46,0,0,0-1.3-.84,1.57,1.57,0,0,0-.72.18,1.36,1.36,0,0,0-1.21-.69,1.74,1.74,0,0,0-1.37.69,1.53,1.53,0,0,0-.29.69,1.4,1.4,0,0,0-.55-.11,1.71,1.71,0,0,0-1.11.46,2.2,2.2,0,0,0-.54-.07,1.81,1.81,0,0,0-1.33.54h-.13a2.94,2.94,0,0,1-.82-.12c-.21-.37-.67-.69-1.64-.69-.4,0-.84,0-1.2.08l-.52,0a2.78,2.78,0,0,0-1.23.36l-.22.1,0,0a2.64,2.64,0,0,0-1.71-.58,3,3,0,0,1-.54,0,1.33,1.33,0,0,0-1.38-.8,6.41,6.41,0,0,0-.65,0h0A1.58,1.58,0,0,0,54.87,9l-.35,0a1.68,1.68,0,0,0-1.26.54l-.44,0c-.29,0-.59,0-.93.05s-.94.08-1.56.08-.82-.29-1.17-.86a4.11,4.11,0,0,0-.37-.53,1.46,1.46,0,0,0-1.16-.47A6.11,6.11,0,0,0,46.41,8c-.21,0-.45.1-.63.12a2.12,2.12,0,0,0-1.43-.58l-.19,0a2.47,2.47,0,0,0-1.61-.7,4.26,4.26,0,0,1-.72-.15,2.05,2.05,0,0,0-.65-.11A2.54,2.54,0,0,0,39.85,7a1.38,1.38,0,0,1-.35.17,4.48,4.48,0,0,0-2.89,1,1.48,1.48,0,0,1-.81.2l-.27,0a2,2,0,0,0-1.27-.67,4.29,4.29,0,0,1-.45-.11,1.6,1.6,0,0,0-1.58-1,5.59,5.59,0,0,0-1.74.39,1.43,1.43,0,0,0-1.2-.58,1.76,1.76,0,0,1-1.17-.45,2.75,2.75,0,0,0-2.56-1.28l-.13-.24a4.39,4.39,0,0,0-.51-.8,1.28,1.28,0,0,0-1-.46,1.61,1.61,0,0,0-.82.25,1.53,1.53,0,0,0-.94-.3,4,4,0,0,0-1.4.35l-.29.11a1.81,1.81,0,0,0-.93-.23,4.76,4.76,0,0,0-.59,0l-.21,0c-.19-.23-.49-.7-.68-1A4.29,4.29,0,0,0,16.85.82a10.46,10.46,0,0,0-3.14-.6h-.06a1,1,0,0,0-.84,1.54l0,0a3,3,0,0,0-2,.72,1.94,1.94,0,0,1-.58.12,2,2,0,0,0-1.75,1A1.25,1.25,0,0,1,8.07,4a1.84,1.84,0,0,0-1.24-.4H6.51a1.24,1.24,0,0,0-.87-.37A1.49,1.49,0,0,0,4.46,4a3.17,3.17,0,0,1-.52.58s0,0-.15,0a3,3,0,0,1-.35,0,4.81,4.81,0,0,0-.56,0,1.85,1.85,0,0,0-1.56.75,1.77,1.77,0,0,1-.6.49,1.21,1.21,0,0,0-.72,1,1.1,1.1,0,0,0,.57,1A3,3,0,0,0,1.31,8a2.41,2.41,0,0,1,.74.29A3.73,3.73,0,0,0,2.53,9a1,1,0,0,0,.77.36h0l.52,0c.26,0,.55,0,.84,0a2.86,2.86,0,0,0,1.08-.18A15.61,15.61,0,0,1,9,9a11.93,11.93,0,0,1,2.15.15,28.83,28.83,0,0,1,3.37.89,1.93,1.93,0,0,0,.64.12,1.63,1.63,0,0,0,.91-.28,3.93,3.93,0,0,0,1.42.2h.74l1,0a16.35,16.35,0,0,1,3.33.63,12.07,12.07,0,0,0,1.9.4,2.17,2.17,0,0,1,.69.23,3.75,3.75,0,0,0,1.57.4l.31,0h.12c.34,0,.59.17,1,.67a1.35,1.35,0,0,0,1.07.5,3.51,3.51,0,0,0,1.64-.61,4.23,4.23,0,0,1,.82-.4l.29.21a3,3,0,0,0,1.85.7,3.1,3.1,0,0,0,.58-.06,9.7,9.7,0,0,1,1.74-.12c.87,0,1.78.06,2.38.1l.63,0a2.05,2.05,0,0,0,1.43.54,3.05,3.05,0,0,0,.44,0h.12a1.23,1.23,0,0,1,.57.21,4.89,4.89,0,0,0,1.95.62,14,14,0,0,1,3.51,1.23c.44.2.83.37,1.16.5s.62.22.87.31l.36.12a1.56,1.56,0,0,0,1.64,1.29,3.58,3.58,0,0,0,1.44-.36A.83.83,0,0,1,53,17.1a4.25,4.25,0,0,1,.49,0,5.8,5.8,0,0,0,.73.06,2.75,2.75,0,0,0,1.46-.39,1.3,1.3,0,0,1,.63-.26,2.76,2.76,0,0,1,.67.17l.25.08a2.8,2.8,0,0,1,.65.3,2.8,2.8,0,0,0,1.6.46,2.61,2.61,0,0,1,.72.17,4.26,4.26,0,0,0,1.35.27,2.74,2.74,0,0,0,1-.2l.17-.06c.49,1,2.11,1.17,3.24,1.31a10.19,10.19,0,0,0,1.14.1,1.58,1.58,0,0,0,1.2-.45A2,2,0,0,0,68.66,17v-.09a1.48,1.48,0,0,0-.28-.78l.17,0a2.22,2.22,0,0,0,1.21.42h.18a2.47,2.47,0,0,0,.72-.1,1.19,1.19,0,0,0,.45.09h.06a2.35,2.35,0,0,0-.21.27,1.73,1.73,0,0,0-.22,1.63,1.26,1.26,0,0,0,1.18.85,1.65,1.65,0,0,0,1-.4,1.25,1.25,0,0,0,.17.25,1.22,1.22,0,0,0,.66.37,2.28,2.28,0,0,0,.64,1.11,1.38,1.38,0,0,0,1.31.33,2.79,2.79,0,0,0,1.78,1.26h.16A1.33,1.33,0,0,0,79,20.83a1.23,1.23,0,0,0-.33-.84,1.17,1.17,0,0,0,.27-.6,2.73,2.73,0,0,0,1.25.3h.1A3,3,0,0,0,80.79,21a2.07,2.07,0,0,0,1.6,1.1,1.25,1.25,0,0,0,1-.53.82.82,0,0,1,.3-.2,1.82,1.82,0,0,0,.71-.55l.15.19a1.57,1.57,0,0,0,2.76-.47,1.37,1.37,0,0,0,.72-1.06c0-.07,0-.13,0-.2h0a1.34,1.34,0,0,0,.65.55c.14.93.77,1,1,1a1,1,0,0,0,.65-.23,1.54,1.54,0,0,0,.7.18,1.28,1.28,0,0,0,.85-.32,1.21,1.21,0,0,0,.24-1.61,1.26,1.26,0,0,0,.54.13,1.09,1.09,0,0,0,1-.76,1.25,1.25,0,0,0,.06-.29,1.83,1.83,0,0,0,1,.28,2,2,0,0,0,1.25-.44,1.69,1.69,0,0,0,.57-.74,1.18,1.18,0,0,0,.45.23,1.25,1.25,0,0,0,1.16.73,3.2,3.2,0,0,0,1.94-1,1.9,1.9,0,0,0,.6-1.9c0-.21,0-.21,0-.29a2.73,2.73,0,0,1,.41-.48,2,2,0,0,0,.54-.83,1.35,1.35,0,0,0,.92-.49,1.58,1.58,0,0,0,.18-1.43,2.09,2.09,0,0,1-.07-.43l.3-.07a2.47,2.47,0,0,0,1.58-.83A1.18,1.18,0,0,0,104.89,9a1.1,1.1,0,0,0-.33-.42,2.62,2.62,0,0,0,.66-1.1,1.74,1.74,0,0,0,0-1.64,1.08,1.08,0,0,0-.19-.2,3.13,3.13,0,0,0,1.13-1.44A1.3,1.3,0,0,0,106,3a1.23,1.23,0,0,0-1-.47h-.19a2,2,0,0,0-.12-1.41,1.46,1.46,0,0,0-.45-.51,1,1,0,0,0-.51-.54,1,1,0,0,0-.43-.09Zm0,2h0Z"/></g></g></svg>