<svg xmlns="http://www.w3.org/2000/svg" viewBox="0 0 72.25 49.63"><defs><style>.cls-1{fill:#24b8eb;}</style></defs><title>CHINA2</title><g id="Слой_2" data-name="Слой 2"><g id="Слой_11" data-name="Слой 11"><path class="cls-1" d="M57.88,1H58a2.58,2.58,0,0,0,.73.1h.21a.38.38,0,0,1,.22,0,3.5,3.5,0,0,0,1.18.33l.14,0a2.91,2.91,0,0,0,.38.28h0a1.27,1.27,0,0,0,.55.92.63.63,0,0,1,0,.17,3,3,0,0,0,.68,1.45l.06.07a4.57,4.57,0,0,0,.38.86l.16.31a1.42,1.42,0,0,0,.22,1.07,1.5,1.5,0,0,0,1.2.6,1.18,1.18,0,0,1,.43.18,1.52,1.52,0,0,0,.78.26h.11a1.41,1.41,0,0,1,.43.24,1.83,1.83,0,0,0,.63.41,3.08,3.08,0,0,0,.15.41l0,.08a1.24,1.24,0,0,0,.33.85,2.29,2.29,0,0,0,1.65.62l.34,0h.5a1.4,1.4,0,0,0,1.18-.58h.09l.2,0a5.63,5.63,0,0,0-.43,1.26l0,.07,0,0a1.87,1.87,0,0,0-.68.92,2.13,2.13,0,0,0-.26.23A1.26,1.26,0,0,0,69,12a1.68,1.68,0,0,0-1.14.54l0,0a1.18,1.18,0,0,0-.62.43A2,2,0,0,0,67,14.6v.05a2.41,2.41,0,0,0,0,.8,1.4,1.4,0,0,0-.52-.1,1.38,1.38,0,0,0-1.27,1.06,1.51,1.51,0,0,0-.58.53,1.46,1.46,0,0,0-1.07.52,1.35,1.35,0,0,0-.66-.17,1.78,1.78,0,0,0-1.44,1l-.1.16a16,16,0,0,1-1.58.83l-.36.17a1.43,1.43,0,0,0-.53.47l-.31.1c-.19.07-.39.16-.59.26a1.35,1.35,0,0,0-.5-1.42,1.82,1.82,0,0,0-1.13-.4,3.17,3.17,0,0,0-2.29,1.33.5.5,0,0,1-.09.09h0l-.11,0a1.58,1.58,0,0,0-1.33,1,2.88,2.88,0,0,0-.52-.06l-.25,0a1.86,1.86,0,0,0-1.33,2,1.46,1.46,0,0,0,1.46,1.44h.25a1.86,1.86,0,0,0,.29.76,1.5,1.5,0,0,0,1.19.69l-.07.17a2.06,2.06,0,0,0-1,1.23,1.55,1.55,0,0,0,.15,1.31,1.85,1.85,0,0,0,.88.64l.15.07a7,7,0,0,0,.7,1.38,1.63,1.63,0,0,0,0,.26,1,1,0,0,0-.71,1,1,1,0,0,0,.81,1l.09.1.15.16a1.1,1.1,0,0,0-.54,1.06,1.32,1.32,0,0,0,1.1,1.09,1.41,1.41,0,0,0-.06.7v.05a2,2,0,0,0-1,1.33.22.22,0,0,1-.09.15l-.24.08a1.4,1.4,0,0,0-1,.65l-.2.42.13.4,0,.11a1.84,1.84,0,0,0-.06.51,1.22,1.22,0,0,0-.45.53,1.57,1.57,0,0,0-.48.41,1.42,1.42,0,0,0-1,1,1.66,1.66,0,0,0-.93.61.74.74,0,0,1-.13.14,2.42,2.42,0,0,0-.4.42,5.49,5.49,0,0,0-2.17.4l-.18,0a1.87,1.87,0,0,0-.54-.1,1.07,1.07,0,0,0-.91.5,7,7,0,0,1-1.82,1,10.47,10.47,0,0,0-1.09.41,1.19,1.19,0,0,0-1-.57,1.21,1.21,0,0,0-.47.1,1.42,1.42,0,0,0-.8-.25,1.26,1.26,0,0,0-.82.3l-.22-.07a1.78,1.78,0,0,1-.29-.18,1.19,1.19,0,0,0-.15-.79,1.51,1.51,0,0,0-1.17-.66,2.05,2.05,0,0,1-.25,0h0l0,0-.14-.16a1.11,1.11,0,0,0-.79-.32,2.15,2.15,0,0,0-1.4.71h0a1.51,1.51,0,0,0-.54.1,1.62,1.62,0,0,0-.6-.13,1.18,1.18,0,0,0-.57.15,1.51,1.51,0,0,0-.31,0,1.25,1.25,0,0,0-.88.35h-.17a1.14,1.14,0,0,0-1.05.77,1.85,1.85,0,0,0-.08.23l-.13,0-.1-.13a1.23,1.23,0,0,0-.37-.3,1.32,1.32,0,0,0-.21-.88,1.39,1.39,0,0,0-.64-.52,1.08,1.08,0,0,0-.12-.69,1.43,1.43,0,0,0-1-.65,4.1,4.1,0,0,1,.46-.56,2.52,2.52,0,0,0,.61-2.14c0-.11,0-.22,0-.33a1.48,1.48,0,0,0-.76-1.44,1.53,1.53,0,0,0-1.52-1.25,1.5,1.5,0,0,0-.44.06l-.18-.24,0-.06a1.12,1.12,0,0,0-1.11-.89,1.63,1.63,0,0,0-.82.25,2.59,2.59,0,0,0-.63-.09,1.94,1.94,0,0,0-.93.23,3.94,3.94,0,0,0-.77.55,1.23,1.23,0,0,0-1,.75l0,0-.18.19a1.72,1.72,0,0,0-.78-.19l-.33,0a2.35,2.35,0,0,0-1.07-.32,1.37,1.37,0,0,0-.85.28l-.07,0-.11.05a1.14,1.14,0,0,0-.7-.24,1.12,1.12,0,0,0-.83.37h0a1.8,1.8,0,0,1-.56-.12,2.78,2.78,0,0,0-.89-.17h-.08a4.81,4.81,0,0,1-1.67-.71c-.27-.22-.7-.52-1.16-.83s-1.08-.74-1.23-.89a2,2,0,0,0-1.4-.6,1.42,1.42,0,0,0-.64.15l-.13-.1a2,2,0,0,0-1.2-.89l-.07-.08-.23-.23a1.38,1.38,0,0,0,.49-.49,1.33,1.33,0,0,0,0-1.33,3.61,3.61,0,0,0-.2-.32,5.35,5.35,0,0,0,1.4-1.82,1.25,1.25,0,0,0-.17-1.14,3.35,3.35,0,0,0-2.1-1.35h-.1a2.91,2.91,0,0,0-1.53.54l-.17,0L4.3,26l-.57-.28,0,0h0c0-.6-.44-.92-1-1.35l-.09-.07c-.06-.39-.15-1-.18-1.22-.07-.55-.5-1-1.3-1.37l0-.15.06-.16a1.91,1.91,0,0,0,.61-.4L2,20.9a1.4,1.4,0,0,0,.71.2,1.26,1.26,0,0,0,.75-.25,1.83,1.83,0,0,0,.91-.66h.08l.14,0,.27,0a1.8,1.8,0,0,0,1.61-.93l.07,0A2.47,2.47,0,0,0,7.18,19a5.16,5.16,0,0,1,.81-.4l.07,0a1.33,1.33,0,0,0,.7-1.47h0L8.81,17a2,2,0,0,0,.5-.68A1.93,1.93,0,0,0,9,14.74l-.11-.23a4.48,4.48,0,0,0,0-.46l.35-.12a2.71,2.71,0,0,0,1.1.19,1.17,1.17,0,0,0,1.13-.75,1.33,1.33,0,0,0-.1-1.09c.08-.22.2-.53.29-.75l.13-.31a5.11,5.11,0,0,0,.57,0h.27a1.38,1.38,0,0,0,.54.1A2.38,2.38,0,0,0,15,10.45a1.27,1.27,0,0,0,0-1.34L15,9V9A1.44,1.44,0,0,0,16,8.32a2.38,2.38,0,0,0,.53.44l.16.11a2.86,2.86,0,0,0,1.63.83.71.71,0,0,1,.18.13,2.49,2.49,0,0,0,.64,1.09,4,4,0,0,0-.1.58,1.37,1.37,0,0,0-.13,1.67c.62,1,3,1.13,3.49,1.14l.06.07a1.43,1.43,0,0,0,.55.41,1.68,1.68,0,0,0,1,.59l.06,0h0a.54.54,0,0,1,.09.23,2.94,2.94,0,0,0,.67,1.3l.06.08a1.3,1.3,0,0,0,1.4.82l.41,0h.56a15.82,15.82,0,0,0,1.62,0c.42,0,1.05,0,1.22,0s.34,0,.56.05a2.88,2.88,0,0,1,1.18.23,2.06,2.06,0,0,0,1.27.44h.25a2.62,2.62,0,0,0,1.38.41h.21a1.54,1.54,0,0,0,.79.44l.26,0a2.75,2.75,0,0,0,1.45-.6,8.15,8.15,0,0,1,1-.58,2,2,0,0,1,.84-.16,5.9,5.9,0,0,1,1,.11l.3,0,.32,0A3.91,3.91,0,0,0,43.66,17a1.41,1.41,0,0,1,.53-.33,1.67,1.67,0,0,0,1.12-2.12,3.1,3.1,0,0,0,.78.1,2.88,2.88,0,0,0,1.66-.52,1.44,1.44,0,0,1,1-.34l.37,0a1.84,1.84,0,0,0,1.49-1,1.33,1.33,0,0,1,.19-.27,1.06,1.06,0,0,1,.77-.33,2.82,2.82,0,0,0,1-.23l.32-.11a3.35,3.35,0,0,0,1,.15,1.41,1.41,0,0,0,1.51-1.09c.17-.83-.52-1.4-1.25-2a5.79,5.79,0,0,1-.52-.46,1.66,1.66,0,0,0-1.29-.62,1.72,1.72,0,0,0-1.07.38A2.37,2.37,0,0,0,50.45,8h0V8l.41-.81a3.36,3.36,0,0,0,.87.13,1.51,1.51,0,0,0,.48-.07,3.35,3.35,0,0,0,.65-.34l.41-.24A1.77,1.77,0,0,0,54.32,6a1.3,1.3,0,0,0,.22-.73l.17-.29a2.88,2.88,0,0,0,.35-.73,3.29,3.29,0,0,1,.35-.58,1.67,1.67,0,0,0,1-1.61,3.79,3.79,0,0,0-.22-.85h.31a2.43,2.43,0,0,0,.45-.06,6.32,6.32,0,0,1,1-.12h0M41.81,48.52l0,0-.11,0,.12-.08M57.87,0a11.51,11.51,0,0,0-1.42.18s-.19,0-.37,0a1.38,1.38,0,0,0-1.16.52c-.45.61-.17.64,0,.64H55c.21,0,.32.64.36.86s-.36.54-.54.61a3,3,0,0,0-.75,1.14c-.07.29-.64,1-.57,1.25s-.28.5-.53.53a11.6,11.6,0,0,0-1.14.61l-.16,0c-.33,0-.93-.13-1-.34a.48.48,0,0,0-.27-.2l-1,1.93-.08.62s-.62.16-.16.62a.59.59,0,0,0,.41.23A5.27,5.27,0,0,1,50.45,9c.51,0,.82.3,1,.3s.12,0,.16-.14a.7.7,0,0,1,.64-.41.67.67,0,0,1,.52.26c.39.47,1.63,1.24,1.56,1.63,0,.21-.26.28-.53.28a2.38,2.38,0,0,1-.71-.13.65.65,0,0,0-.21,0c-.43,0-.95.34-1.35.34a2.06,2.06,0,0,0-1.48.62c-.47.47-.39.93-1.09,1a2.81,2.81,0,0,0-1.79.54,1.87,1.87,0,0,1-1.09.34,2,2,0,0,1-.85-.19,1.07,1.07,0,0,0-.47-.11.77.77,0,0,0-.7.42c-.31.54.39.78.31,1.4s-.85.47-1.48,1.17a2.94,2.94,0,0,1-2,.95h-.18a9,9,0,0,0-1.46-.17,3,3,0,0,0-1.26.25c-1,.44-1.64,1.09-2,1.09h-.06c-.36-.07-.39-.48-.82-.48H35l-.27,0a1.78,1.78,0,0,1-1-.33.59.59,0,0,0-.32-.08l-.33,0a1.05,1.05,0,0,1-.67-.24,4.79,4.79,0,0,0-2.18-.47c-.47-.08-2.25,0-2.88-.08l-.31,0-.78,0c-.24,0-.42,0-.46-.17-.08-.31-.54-.54-.7-1.24a1.15,1.15,0,0,0-.93-1c-.39-.08-.43-.49-.78-.54-.17,0-.36-.55-.91-.55s-2.44-.22-2.72-.67.27-.54.27-1,.3-1,.07-1.21a1.77,1.77,0,0,1-.64-.91,1.36,1.36,0,0,0-1-.84,1.93,1.93,0,0,1-1.09-.59c-.37-.32-.72-.3-.86-1.11a1.44,1.44,0,0,0,0-.14c-.15,0-.34-.07-.46-.07a.52.52,0,0,1-.32-.19c-.1.34-.42.51-.42.78s-.12.67-.52.67-.76.3-.79.91.35.69.17,1a1.44,1.44,0,0,1-1,.45.37.37,0,0,1-.16,0,4.69,4.69,0,0,0-1.11-.1c-.26,0-.47-.25-.63-.25s-.15.06-.19.25c-.12.54-.94,2.15-.74,2.32s.34.57,0,.57a1.28,1.28,0,0,1-.86-.22.17.17,0,0,0-.12,0c-.23,0-.66.26-1,.26h0c-.2,0-.95.34-.69.47s.27.78.27,1,.59,1.07.48,1.34-.64.56-.64.91.11.67-.08.75a6.64,6.64,0,0,0-1.07.54c-.29.21-.78.21-.94.54a.84.84,0,0,1-.81.54H4.69a4.35,4.35,0,0,0-.44,0,.78.78,0,0,0-.65.36c-.37.46-.45.27-.72.48a.27.27,0,0,1-.17.07c-.21,0-.41-.24-.57-.31H2c-.2,0-.46.25-.65.25s-.4.35-.67.43-.54,0-.54.32a.92.92,0,0,1-.2.6H0l.19,1s1.14.38,1.19.76.24,1.62.24,1.62h0c.46.36,1.1.75,1.1.89a1,1,0,0,0,.61.91,8,8,0,0,1,.94.5l0-.11.48,0a1.56,1.56,0,0,1,.27.23,1.72,1.72,0,0,1,1.33-.79h0c.45,0,1.5.86,1.39,1.15S6.94,28.92,6.59,29a3,3,0,0,1-.51.05,3.6,3.6,0,0,0-.07.43c0,.24.43.62.67,1s-.1.54-.39.54A.49.49,0,0,1,6,31a.27.27,0,0,0-.17-.08c-.21,0-.27.41-.12.6s.1.91.43,1,.62.71,1,.71.72.62.72.62.52.33.52.52a.15.15,0,0,1,0,.07c.42,0,.69-.06.74-.23s.13-.12.27-.12a1,1,0,0,1,.69.31c.37.37,1.9,1.34,2.46,1.79a5.34,5.34,0,0,0,2.29.94h.09c.42,0,.83.3,1.45.3h.35c.1-.1.27-.11.39-.3a.15.15,0,0,1,.12-.08c.17,0,.34.4.26.7a.83.83,0,0,0,.07.53,2.68,2.68,0,0,0,.27-.51c.24-.59.62-.56.86-.75a.44.44,0,0,1,.28-.1,1.72,1.72,0,0,1,.71.26.59.59,0,0,0,.29.07c.14,0,.26,0,.4,0a1,1,0,0,1,.7.35,1.56,1.56,0,0,1,.42-.15c.14,0,.33-.29.57-.52s.2-.48.42-.48h.11c.26,0,.42-.36,1-.67a.94.94,0,0,1,.46-.11c.31,0,.57.13.78.13a.29.29,0,0,0,.2-.06.89.89,0,0,1,.48-.23.12.12,0,0,1,.14.14c0,.24.38.52.48.81s.59.36.69.38l.2-.12a.44.44,0,0,1,.26-.08c.26,0,.54.19.54.43s0,.67.27.67.48,0,.48.59.21,1.26-.29,1.77-1.1,1.42-1,1.68-.09.63.09.63a.31.31,0,0,0,.13,0,1,1,0,0,1,.41-.08c.38,0,.78.14.69.29s0,1,.37,1,.56.21.46.54-.29.8,0,.8.72,0,.67.32a.39.39,0,0,0,.41.47.91.91,0,0,0,.33-.07,2,2,0,0,1,.45-.17.1.1,0,0,1,.09.06h0c.21,0,.23.48.59.57H32c.31,0,.13-.82,0-1s0-.64.15-.64l0,0a.23.23,0,0,0,.17.06.94.94,0,0,0,.64-.34.24.24,0,0,1,.2-.09c.16,0,.36.11.51.11a.21.21,0,0,0,.2-.12.19.19,0,0,1,.17-.11c.17,0,.4.17.64.17a.47.47,0,0,0,.23-.06.55.55,0,0,1,.27-.08c.15,0,.26.07.36.07s.12,0,.18-.13a1.52,1.52,0,0,1,.87-.65.11.11,0,0,1,.08,0,1.21,1.21,0,0,0,1,.52c.76.1.33.48.33.71s.86.86,1.19.9a.56.56,0,0,1,.25.2.57.57,0,0,1,.25,0h.16c.15,0,.28,0,.33-.16a.27.27,0,0,1,.27-.21.48.48,0,0,1,.39.24c.08.14.17.22.29.22a.68.68,0,0,0,.41-.22.29.29,0,0,1,.19-.09c.22,0,.31.44.13.59s-.07.73.27,1.05a.3.3,0,0,0,.19.1c.17,0,.19-.37.14-.62s.57-.64,1.69-1a6,6,0,0,0,2.35-1.37s0,0,.06,0a6.66,6.66,0,0,0,.8.16.5.5,0,0,0,.31-.09,5.77,5.77,0,0,1,2.09-.34c.36,0,.34-.32.71-.62s.28-.45.71-.57a1,1,0,0,0,.69-.73c0-.21.8-.29.82-.52s.61-.3.61-.59.36-.23.52-.45-.13-.84.16-.93-.11-.43-.16-.59.54-.2.84-.39a1.23,1.23,0,0,0,.55-.84c.05-.34.55-.64.78-.73s.32-.57.25-1,.41-.3.2-.46.09-.61.52-.73,0-.21-.22-.21a.47.47,0,0,0-.28.07.13.13,0,0,1-.08,0c-.17,0-.34-.34-.51-.34a.14.14,0,0,0-.11.06.24.24,0,0,1-.2.09c-.25,0-.53-.27-.23-.34a11.93,11.93,0,0,0,1.27-.62c.26-.09-.37-.66-.72-.66h0c-.34,0-.71-.79-1.06-.79s0-.12.28-.12a.86.86,0,0,1,.4.09,2.17,2.17,0,0,0,.85.29.3.3,0,0,0,.22-.07c.18-.18-.7-.89-1-1.14s0-.59-.21-.73a5.24,5.24,0,0,1-.77-1.46c-.14-.41-.89-.48-1.07-.75s0-.89.57-1.12.34-.65.53-.65h.15c.2,0,.38-.13.55-.48s.54-.16.73-.37,1.07-.2,1.37-.41-.2-.78-.6-.78H56.7a1,1,0,0,1-.25,0,1.12,1.12,0,0,1-.93-.51.18.18,0,0,0-.15-.09c-.35,0-1,.92-1.45,1.14a.55.55,0,0,1-.23.06c-.43,0-.68-.61-.51-1s-.19-.44-.71-.44l-.53,0h0c-.77,0-.46-1.43,0-1.5H52c.23,0,.5.09.75.09s.5-.1.65-.53c.3-.89.73-.2,1.41-1a2.37,2.37,0,0,1,1.54-1,.81.81,0,0,1,.51.18c.59.46-.62,1.2-.82,1.64s.18.59-.18.93c-.19.18-.14.29,0,.29a1.66,1.66,0,0,0,.79-.3A14.82,14.82,0,0,1,58.93,21a1.21,1.21,0,0,1,.45-.08h.13a1,1,0,0,1,.34-.53,12.18,12.18,0,0,0,2.25-1.24c.23-.31.47-.85.78-.85s.31.31.78.31c.21,0,.43,0,.59,0s.31,0,.18-.26c-.23-.39-.08-.39.47-.47s.47-.62.86-.62.31-.93.7-.93.5.42.85.42l.16,0h.09a.65.65,0,0,1,.25.06l.3-.22A6.48,6.48,0,0,0,68,15.41c-.18-.43,0-.75-.07-1s-.11-.86.18-.86S68.65,13,69,13a.27.27,0,0,1,.16.05,1.35,1.35,0,0,0,.71.21c.2,0,.36-.06.36-.21,0-.32.5-.36.57-.79s.61-.53.71-.93.29-1.32.64-1.53-.07-.36,0-1c0-.33-.17-.43-.39-.43a1.12,1.12,0,0,0-.57.18c-.25.18-1,0-1.18.43a.42.42,0,0,1-.43.26l-.43,0h-.41c-.47,0-1-.2-1-.48s-.29-.64-.25-1-.5-.21-.86-.57a2.17,2.17,0,0,0-1.14-.55h-.11c-.17,0-.58-.4-1.14-.44s-.53-.43-.46-.68-.5-1-.61-1.46-.53-.5-.71-1.43-.68-.68-.57-1.11-.61-.64-.78-.89S60.12.54,59.59.25A1.35,1.35,0,0,0,58.9.09h-.21A1.58,1.58,0,0,1,58.23,0a1.35,1.35,0,0,0-.36,0ZM56.43,40.83a2.38,2.38,0,0,0-1.83,1.8c-.37,1.35.43,2.08.62,2.08h0c.36-.25,1.82-3.32,1.5-3.75a.37.37,0,0,0-.31-.13ZM42.82,47.44c-.32,0-.71,0-1,0-.46,0-1.64.68-1.18,1.64a.89.89,0,0,0,.86.5c.56,0,1.15-.35,1.17-.61,0-.43.73-1.1.64-1.43,0-.12-.26-.15-.54-.15Z"/></g></g></svg>