<svg xmlns="http://www.w3.org/2000/svg" viewBox="0 0 72.25 49.63"><defs><style>.cls-1{fill:#24b8eb;}</style></defs><title>CHINA</title><g id="Слой_2" data-name="Слой 2"><g id="Слой_11" data-name="Слой 11"><path class="cls-1" d="M72.08,8.85c0-.64-.71-.43-1-.25s-1,0-1.18.43-.57.18-1.07.25-1.21-.14-1.18-.46-.29-.64-.25-1-.5-.21-.86-.57a1.9,1.9,0,0,0-1.21-.54c-.14.07-.57-.39-1.18-.43s-.53-.43-.46-.68-.5-1-.61-1.46-.53-.5-.71-1.43-.68-.68-.57-1.11-.61-.64-.78-.89S60.12.54,59.59.25,58.73.18,58.23,0a6.13,6.13,0,0,0-1.78.14,1.63,1.63,0,0,0-1.53.5c-.5.68-.11.64.11.64s.32.64.36.86-.36.54-.54.61a3,3,0,0,0-.75,1.14c-.07.29-.64,1-.57,1.25s-.28.5-.54.54a11.62,11.62,0,0,0-1.14.61c-.21.07-1.07-.07-1.18-.32a.48.48,0,0,0-.27-.2l-1,1.93-.08.62s-.62.16-.16.62.54.08,1.24.08,1,.54,1.17.16A.69.69,0,0,1,52.78,9c.39.47,1.63,1.24,1.56,1.63s-.78.31-1.24.16-1.09.31-1.55.31a2.06,2.06,0,0,0-1.48.62c-.47.47-.39.93-1.09,1a2.81,2.81,0,0,0-1.79.54,2,2,0,0,1-1.94.16.84.84,0,0,0-1.17.31c-.31.54.39.78.31,1.4s-.85.47-1.48,1.17a2.82,2.82,0,0,1-2.18.93,4.67,4.67,0,0,0-2.72.08c-1,.47-1.71,1.17-2.1,1.09s-.39-.55-.93-.47a1.68,1.68,0,0,1-1.24-.31c-.39-.23-.7.16-1.32-.31a4.79,4.79,0,0,0-2.18-.47c-.47-.08-2.25,0-2.88-.08s-1.48.16-1.55-.16-.54-.55-.7-1.24a1.15,1.15,0,0,0-.93-1c-.39-.08-.43-.49-.78-.54-.17,0-.36-.55-.91-.55s-2.44-.22-2.72-.67.27-.54.27-1,.3-1,.07-1.21a1.77,1.77,0,0,1-.64-.91,1.35,1.35,0,0,0-1-.84,1.92,1.92,0,0,1-1.09-.59c-.37-.32-.72-.3-.86-1.11a1.43,1.43,0,0,0,0-.14c-.15,0-.34-.07-.46-.07a.52.52,0,0,1-.32-.19c-.1.34-.42.51-.42.78s-.12.67-.52.67-.76.3-.79.91.35.69.17,1a1.31,1.31,0,0,1-1.14.42,4.67,4.67,0,0,0-1.11-.1c-.39,0-.69-.54-.81,0s-.94,2.15-.74,2.32.34.57,0,.57a1.28,1.28,0,0,1-.86-.22c-.17-.17-.74.24-1.14.22-.18,0-1,.34-.69.47s.27.78.27,1,.59,1.07.48,1.34-.64.56-.64.91.11.67-.08.75a6.64,6.64,0,0,0-1.07.54c-.29.21-.78.21-.94.54a.86.86,0,0,1-1,.54c-.48-.05-.72-.13-1.1.32s-.45.27-.72.48-.54-.16-.75-.24S1.62,20,1.4,20s-.4.35-.67.43-.54,0-.54.32a.92.92,0,0,1-.2.6H0l.19,1s1.14.38,1.19.76.24,1.62.24,1.62h0c.46.36,1.1.75,1.1.89a1,1,0,0,0,.62.91,8.11,8.11,0,0,1,.94.5l0-.11.48,0a1.55,1.55,0,0,1,.27.23,1.72,1.72,0,0,1,1.37-.78c.45,0,1.5.86,1.39,1.15S6.94,28.92,6.59,29a3,3,0,0,1-.51.05,3.61,3.61,0,0,0-.07.43c0,.24.43.62.67,1s-.38.71-.71.43-.48.29-.29.52.1.91.43,1,.62.71,1,.71.72.62.72.62.52.33.52.52a.15.15,0,0,1,0,.07c.42,0,.69-.06.74-.23s.59-.19,1,.19,1.9,1.34,2.46,1.79a5.21,5.21,0,0,0,2.33.94c.46,0,.88.32,1.58.29h.28c.1-.11.27-.11.39-.3s.48.24.38.62a.83.83,0,0,0,.07.53,2.7,2.7,0,0,0,.27-.51c.24-.59.62-.56.86-.75s.48-.11,1,.16.67-.28,1.39.38a1.57,1.57,0,0,1,.42-.15c.14,0,.33-.29.57-.52s.19-.52.48-.48.43-.33,1-.67,1.14.19,1.43,0,.62-.33.62-.1.38.52.48.81.59.36.69.38l.2-.12a.53.53,0,0,1,.8.35c0,.32,0,.67.27.67s.48,0,.48.59.21,1.26-.29,1.77-1.1,1.42-1,1.68-.16.78.21.59,1.23,0,1.1.21,0,1,.37,1,.56.21.46.54-.29.8,0,.8.72,0,.67.32.21.62.75.4c.31-.13.47-.24.54-.11s.23.48.59.57.19-.81,0-1,0-.76.19-.62.57,0,.81-.29.72.24.91-.09.62.24,1,0,.62.19.81-.14.81-.76,1-.62a1.21,1.21,0,0,0,1,.52c.76.1.33.48.33.71s.86.86,1.19.9a.56.56,0,0,1,.25.2c.23-.11.65.08.74-.2s.5-.23.66,0,.34.32.7,0,.53.32.32.5-.07.73.27,1.05.39-.2.32-.52.57-.64,1.69-1a6,6,0,0,0,2.35-1.37c0-.18.8.32,1.18,0a5.78,5.78,0,0,1,2.09-.34c.36,0,.34-.32.71-.62s.28-.45.71-.57a1,1,0,0,0,.69-.73c0-.21.8-.28.82-.52s.61-.3.61-.59.36-.23.52-.45-.13-.84.16-.93-.11-.43-.16-.59.54-.2.84-.39a1.22,1.22,0,0,0,.55-.84c.05-.34.55-.64.78-.73s.32-.57.25-1,.41-.3.2-.47.09-.61.52-.73-.27-.32-.5-.14-.48-.52-.7-.25-.82-.16-.43-.25a12,12,0,0,0,1.27-.63c.27-.09-.39-.68-.73-.66s-.71-.79-1.07-.79.27-.25.68,0,.89.39,1.07.21-.7-.89-1-1.14,0-.59-.21-.73a5.24,5.24,0,0,1-.77-1.46c-.14-.41-.89-.48-1.07-.75s0-.89.57-1.12.32-.7.57-.64.46-.05.66-.46.54-.16.73-.37,1.07-.2,1.37-.41-.29-.87-.7-.77a1.09,1.09,0,0,1-1.18-.48c-.29-.43-1,.78-1.61,1.05s-.94-.48-.75-1-.45-.46-1.25-.43-.5-1.43,0-1.5,1.19.45,1.5-.45.73-.2,1.41-1,1.46-1.27,2.05-.8-.62,1.19-.82,1.64.18.59-.18.93.14.43.84,0A14.85,14.85,0,0,1,58.93,21a1.3,1.3,0,0,1,.58-.07,1,1,0,0,1,.34-.53,12.16,12.16,0,0,0,2.25-1.24c.23-.31.47-.85.78-.85s.31.31.78.31,1,.16.78-.23-.08-.39.47-.47.47-.62.86-.62.31-.93.7-.93.54.55,1,.39a.48.48,0,0,1,.33,0l.29-.22A6.48,6.48,0,0,0,68,15.41c-.18-.43,0-.75-.07-1s-.11-.86.18-.86.64-.71,1-.46,1.07.32,1.07,0,.5-.36.57-.79.61-.53.71-.93.29-1.32.64-1.53S72,9.49,72.08,8.85ZM54.6,42.63c-.39,1.43.52,2.15.64,2.07.36-.25,1.82-3.32,1.5-3.75S55,41.2,54.6,42.63ZM41.86,47.48c-.46,0-1.64.68-1.18,1.64s2,.32,2-.11.73-1.1.64-1.43S42.33,47.48,41.86,47.48Z"/></g></g></svg>