<svg xmlns="http://www.w3.org/2000/svg" viewBox="0 0 45.25 63.98"><defs><style>.cls-1{fill:#24b8eb;}</style></defs><title>COLOMBIA</title><g id="Слой_2" data-name="Слой 2"><g id="Слой_11" data-name="Слой 11"><path class="cls-1" d="M7.06,46.5a2.77,2.77,0,0,0,2.9,0c.35-.44,1.31.53,2.72,2.11l.17.19c1.18-.26,2.67-.48,3.27-.1,1.06.66.79,3,2.25,3.17s2.51,1.59,2.38,2.38,1.58,1.19,1.45,2.38,3.83.92,4.36.53a2.27,2.27,0,0,1,2.25-.27c.66.39,1.85-.39,2.51-.13s3.31,1.32,2.78,2.25-2.38,2.38-2,3.18c.31.62,1.69,1,2.26,1.8a1,1,0,0,0,.19,0c1-.22,1.46-4,1.46-5.16a28.32,28.32,0,0,1,.78-5.18c.64-2.21-2.43-3.76-2.43-6.16s1.21-1.06,2.58-2-.08-1.4-.76-1.56a1.86,1.86,0,0,1-1-2.08c.23-.72,4.41-.42,5.74-.42A11.07,11.07,0,0,0,45.18,40,1.74,1.74,0,0,0,44.5,38c-1-.8-.64-1.94.15-2.85s-.49-1.82-1.48-2.92-.23-5.09.91-7-2.32-1.44-4.44-1.18a5.62,5.62,0,0,1-5.32-2.32c-1.37-1.75-3.23-.64-6.49-.57s-2.62-3.61-2.47-5-1.67-1.59-1.67-2.51-.95-.91-1.79-.84,0-1,.57-1.74S23,9.84,23,8.32,25.28,5.51,26.38,4a2.22,2.22,0,0,1,1.15-.73,1.14,1.14,0,0,1,.92-.74c1.68-.34,2.53-1.43.92-2.36s-2.53,1.77-4.29,2S23,3.56,21.81,4.15s-3.37.08-3.45,1.1-.76,0-1.77-.25S13,7,13.05,8.28s.5,2.44-1.35,3.62-2.95,3.37-3.79,4.38a.63.63,0,0,1-.83.19,2,2,0,0,1-.52,1.19A33.59,33.59,0,0,0,4,20.15c.47.45.92.86,1.22,1.18,1.18,1.27.42,2.28.76,3s.67,1.68,0,2.1-.09,5.05.67,5.89,0,1.6-.84,3.28S4.21,38,2.69,38.09,1.26,40.53.76,40.53s-.7.85-.76,1.59c1.41,1.19,4,2.63,4.69,2.63S6,45.89,7.06,46.5Z"/></g></g></svg>