<svg xmlns="http://www.w3.org/2000/svg" viewBox="0 0 45.26 63.98"><defs><style>.cls-1{fill:#24b8eb;}</style></defs><title>COLOMBIA2</title><g id="Слой_2" data-name="Слой 2"><g id="Слой_11" data-name="Слой 11"><path class="cls-1" d="M28.73,1a.37.37,0,0,1,.16.06,1.86,1.86,0,0,1,.27.18,2.39,2.39,0,0,1-.88.33,2.57,2.57,0,0,0-.56.18h0c.34-.31.8-.74,1-.74M26,3a2.74,2.74,0,0,0-.42.44,11.88,11.88,0,0,1-1.32,1.39C23.19,5.84,22.08,6.9,22,8.3v.36c0,1.26-.05,1.49-.34,1.86-.82,1-1.41,1.88-1,2.69a1.24,1.24,0,0,0,1.15.68H22l.47,0h.23a2.31,2.31,0,0,0,1.12,1.6c.51.38.57.48.55.66l0,.27c-.14,1.2-.4,3.44.81,4.81a3.29,3.29,0,0,0,2.58,1h.12A23.08,23.08,0,0,0,30.59,22a12.77,12.77,0,0,1,1.59-.16,1.48,1.48,0,0,1,1.36.6,6.65,6.65,0,0,0,5.34,2.75,7.12,7.12,0,0,0,.89-.06,23.38,23.38,0,0,1,2.68-.23,5.06,5.06,0,0,1,.7,0c-1.1,1.93-2.19,6.34-.71,8,.2.22.41.43.61.64a5.8,5.8,0,0,1,.84,1,3.45,3.45,0,0,0-1,2.55,2.47,2.47,0,0,0,1,1.73.81.81,0,0,1,.36.55,11.44,11.44,0,0,1-3.32,1l-1,0c-.58,0-1.27,0-1.95,0-2.18,0-3.43.19-3.74,1.18a3,3,0,0,0,.34,2.25,2.24,2.24,0,0,0,1.3,1.09,3.6,3.6,0,0,1-.45.06c-1.08.1-2.07.48-2.07,2.59A6.12,6.12,0,0,0,34.87,51c.72,1,1.16,1.66,1,2.33A31.11,31.11,0,0,0,35,58.16c-.34-.82-1.35-1.52-3.36-2.33a1.87,1.87,0,0,0-.69-.13,4.49,4.49,0,0,0-1.08.18,3.32,3.32,0,0,1-.65.12A2.53,2.53,0,0,0,28,55.7a3.59,3.59,0,0,0-2,.62,6.24,6.24,0,0,1-1.62.18,4.58,4.58,0,0,1-1.2-.13A2.82,2.82,0,0,0,22,54.44l-.27-.24a2.87,2.87,0,0,0-.67-1.83,3.79,3.79,0,0,0-2.63-1.5c-.18,0-.36-.56-.51-1a3.52,3.52,0,0,0-1.29-2,2.87,2.87,0,0,0-1.55-.35,10.54,10.54,0,0,0-1.89.21c-1.46-1.63-2.23-2.31-3-2.31a1.28,1.28,0,0,0-.94.41,1.67,1.67,0,0,1-.6.09,2.18,2.18,0,0,1-1.07-.26,4.67,4.67,0,0,1-.92-.79,2.78,2.78,0,0,0-1.92-1.1h0a13.75,13.75,0,0,1-3.64-2,2.12,2.12,0,0,1,.08-.23c.6-.21.82-.88,1-1.35.22-.66.38-1,.62-1C4.81,39,5.82,37.77,6.7,36c.17-.35.34-.65.5-.93.59-1.07,1.27-2.28.2-3.46a10.64,10.64,0,0,1-.68-4.54c.49-.41,1.1-1.35.17-3.21a2.34,2.34,0,0,1,0-.37,3.44,3.44,0,0,0-.95-2.86l-.52-.52a23.24,23.24,0,0,1,1.74-1.66,2.08,2.08,0,0,0,.67-1,1.73,1.73,0,0,0,.84-.57c.26-.32.53-.71.82-1.14a10.46,10.46,0,0,1,2.74-3,3.68,3.68,0,0,0,1.85-4.07c0-.15,0-.31,0-.45,0-.58,1.68-2.16,2.34-2.24a2.82,2.82,0,0,1,.62.33,2,2,0,0,0,1.08.42A1.24,1.24,0,0,0,19.32,5.6a8.07,8.07,0,0,1,.83-.1A5.86,5.86,0,0,0,22.26,5a5.76,5.76,0,0,0,1.3-.95,2.81,2.81,0,0,1,1.67-.89A3,3,0,0,0,26,3m9,56.47a14.1,14.1,0,0,1-.6,3.17c-.24-.17-.49-.32-.73-.47l-.53-.33A9.2,9.2,0,0,1,34,60.75a8.18,8.18,0,0,0,1-1.24l0,0M28.73,0C27.5,0,26.6,2,25.09,2.21c-1.77.25-2.11,1.35-3.29,1.94s-3.37.08-3.45,1.1c0,.35-.12.48-.26.48-.3,0-.82-.56-1.51-.73l-.17,0c-1.11,0-3.45,2.1-3.37,3.3s.5,2.44-1.35,3.62-2.95,3.37-3.79,4.38a.66.66,0,0,1-.51.27.75.75,0,0,1-.32-.08,2,2,0,0,1-.52,1.19A33.62,33.62,0,0,0,4,20.15c.47.45.92.86,1.22,1.18,1.18,1.27.42,2.28.76,3s.67,1.68,0,2.1-.09,5.05.67,5.9,0,1.6-.84,3.28S4.21,38,2.69,38.09,1.26,40.53.76,40.53s-.7.85-.76,1.59c1.41,1.19,4,2.63,4.69,2.63S6,45.89,7.06,46.5a3.17,3.17,0,0,0,1.58.4A1.83,1.83,0,0,0,10,46.5a.27.27,0,0,1,.22-.11c.46,0,1.32.89,2.5,2.22l.17.19a11.42,11.42,0,0,1,2.25-.3,2,2,0,0,1,1,.2c1.06.66.79,3,2.25,3.17s2.51,1.59,2.38,2.38,1.58,1.19,1.45,2.38c-.07.65,1.07.86,2.2.86a5.28,5.28,0,0,0,2.16-.33A2.57,2.57,0,0,1,28,56.7a1.55,1.55,0,0,1,.8.2.9.9,0,0,0,.47.11c.54,0,1.2-.3,1.72-.3a.87.87,0,0,1,.33.05C32,57,34.62,58.08,34.09,59s-2.38,2.38-2,3.18c.31.62,1.69,1,2.26,1.8a1,1,0,0,0,.19,0c1-.22,1.46-4,1.46-5.16a28.31,28.31,0,0,1,.78-5.18c.64-2.21-2.43-3.76-2.43-6.16s1.21-1.06,2.58-2-.08-1.4-.76-1.56a1.86,1.86,0,0,1-1-2.08c.12-.39,1.42-.48,2.79-.48,1.15,0,2.34.06,2.95.06A11.07,11.07,0,0,0,45.18,40,1.74,1.74,0,0,0,44.5,38c-1-.8-.64-1.94.15-2.85s-.49-1.82-1.48-2.92-.23-5.09.91-7c.68-1.12-.29-1.41-1.64-1.41a24.08,24.08,0,0,0-2.8.24,6.19,6.19,0,0,1-.76,0,5.67,5.67,0,0,1-4.55-2.37,2.46,2.46,0,0,0-2.14-1c-1.11,0-2.51.37-4.35.41h-.1c-3.15,0-2.52-3.62-2.37-5s-1.67-1.59-1.67-2.51c0-.71-.57-.87-1.22-.87l-.56,0h-.08c-.7,0,.1-1.05.65-1.75S23,9.84,23,8.32,25.28,5.51,26.38,4a2.22,2.22,0,0,1,1.15-.73,1.14,1.14,0,0,1,.92-.74c1.68-.34,2.53-1.43.92-2.36A1.3,1.3,0,0,0,28.73,0Z"/></g></g></svg>