<svg xmlns="http://www.w3.org/2000/svg" viewBox="0 0 50.87 39.99"><defs><style>.cls-1{fill:#24b8eb;}</style></defs><title>Contacts</title><g id="Слой_2" data-name="Слой 2"><g id="Слой_11" data-name="Слой 11"><path class="cls-1" d="M50.87,40H0V0H50.87ZM1.53,38.47H49.35V1.53H1.53Zm0,0"/><path class="cls-1" d="M16.88,31.74h-11v-11h11ZM7.39,30.22h8v-8h-8Zm0,0"/><path class="cls-1" d="M11.37,17.71a5.51,5.51,0,1,1,5.51-5.51,5.52,5.52,0,0,1-5.51,5.51Zm0-9.49a4,4,0,1,0,4,4,4,4,0,0,0-4-4Zm0,0"/><rect class="cls-1" x="26.44" y="6.69" width="18.28" height="1.53"/><rect class="cls-1" x="26.44" y="14.31" width="18.28" height="1.53"/><rect class="cls-1" x="26.44" y="21.93" width="18.28" height="1.53"/><rect class="cls-1" x="26.44" y="29.55" width="18.28" height="1.53"/></g></g></svg>