<svg xmlns="http://www.w3.org/2000/svg" viewBox="0 0 46.52 43.03"><defs><style>.cls-1{fill:#9db0c1;}</style></defs><title>Custom Clearance</title><g id="Слой_2" data-name="Слой 2"><g id="Слой_11" data-name="Слой 11"><path class="cls-1" d="M32.06,41.3H3.93a2.84,2.84,0,0,1-3-3V3.93a2.84,2.84,0,0,1,3-3H5A.48.48,0,0,0,5,0H3.93A3.78,3.78,0,0,0,0,3.93V38.34a3.78,3.78,0,0,0,3.93,3.93H32.06a.48.48,0,1,0,0-1Zm0,0"/><path class="cls-1" d="M29.54,24.09H10A2.11,2.11,0,0,1,7.84,21.9V19.22A2.11,2.11,0,0,1,10,17H28.77a3,3,0,0,0,3.16-3.16V11.19A3,3,0,0,0,28.77,8H10A2.11,2.11,0,0,1,7.84,5.84V3.16A2.11,2.11,0,0,1,10,1H34.89a2.84,2.84,0,0,1,3,3V26.58a.48.48,0,1,0,1,0V3.93A3.78,3.78,0,0,0,34.89,0H10A3,3,0,0,0,6.87,3.16V5.84A3,3,0,0,0,10,9H28.77A2.11,2.11,0,0,1,31,11.19v2.68a2.11,2.11,0,0,1-2.19,2.2H10a3,3,0,0,0-3.16,3.16V21.9A3,3,0,0,0,10,25.06h19.5a2.11,2.11,0,0,1,2.19,2.19v2.68a2.11,2.11,0,0,1-2.19,2.19H7.36a.48.48,0,0,0,0,1H29.54a3,3,0,0,0,3.16-3.16V27.25a3,3,0,0,0-3.16-3.16Zm0,0"/><path class="cls-1" d="M46,36a.48.48,0,0,0-.48.48A5.54,5.54,0,1,1,40,31a.48.48,0,0,0,0-1,6.51,6.51,0,1,0,6.51,6.51A.48.48,0,0,0,46,36Zm0,0"/><path class="cls-1" d="M39.32,37.49l-2.43-2.43a.48.48,0,1,0-.68.68l2.43,2.43a2.34,2.34,0,0,0,1.6.68,2.12,2.12,0,0,0,1.52-.68l3.65-3.65a.48.48,0,0,0-.68-.68l-3.65,3.65a1.18,1.18,0,0,1-1.75,0Zm0,0"/></g></g></svg>