<svg xmlns="http://www.w3.org/2000/svg" viewBox="0 0 42.31 37.02"><defs><style>.cls-1{fill:#9db0c1;}</style></defs><title>Industrial </title><g id="Слой_2" data-name="Слой 2"><g id="Слой_11" data-name="Слой 11"><path class="cls-1" d="M4.5,20.65a.48.48,0,1,0,0-1H1.12A.16.16,0,0,1,1,19.53V7.07a.48.48,0,1,0-1,0V19.53a1.13,1.13,0,0,0,1.12,1.12H4.5Zm0,0"/><path class="cls-1" d="M19.18,21.69H8.59a.29.29,0,0,1-.29-.29v-.45a.29.29,0,0,1,.29-.29h9.85A1.26,1.26,0,0,0,19.7,19.4V6.6a1.26,1.26,0,0,0-1.26-1.26H4a.48.48,0,0,0,0,1H18.44a.29.29,0,0,1,.29.29V19.4a.29.29,0,0,1-.29.29H8.59a1.26,1.26,0,0,0-1.26,1.26v.45a1.26,1.26,0,0,0,1.26,1.26H19.18a.29.29,0,0,1,.29.29V35.76a.29.29,0,0,1-.29.29H9.33V31.53h1.11a.62.62,0,0,0,.51-1L8.51,27.35a.73.73,0,0,0-.58-.29h0a.73.73,0,0,0-.58.3L5,30.5a.63.63,0,0,0,.52,1h1v4.52H1.86a.16.16,0,0,1-.16-.16V25.16a.48.48,0,0,0-1,0V35.89A1.13,1.13,0,0,0,1.86,37H7a.48.48,0,0,0,.48-.48V31A.48.48,0,0,0,7,30.56H6.15l1.78-2.38,1.84,2.38H8.84a.48.48,0,0,0-.48.48v5.49A.46.46,0,0,0,8.8,37H19.18a1.26,1.26,0,0,0,1.26-1.26V22.95a1.26,1.26,0,0,0-1.26-1.26Zm0,0"/><path class="cls-1" d="M41.83.75a.48.48,0,0,0-.48.48V35.84a.22.22,0,0,1-.21.21h-4V20.67h1.11a.62.62,0,0,0,.51-1L36.33,16.5a.73.73,0,0,0-.58-.29h0a.73.73,0,0,0-.58.3l-2.35,3.13a.63.63,0,0,0,.52,1h1V36.05h-10a.67.67,0,0,1-.67-.67V1.64A.67.67,0,0,1,24.38,1H38.47a.48.48,0,1,0,0-1H24.38a1.64,1.64,0,0,0-1.64,1.64V35.38A1.64,1.64,0,0,0,24.38,37H34.83a.48.48,0,0,0,.48-.48V20.19a.48.48,0,0,0-.48-.48H34l1.78-2.38,1.84,2.38h-.93a.48.48,0,0,0-.48.48V36.54a.48.48,0,0,0,.48.48h4.47a1.18,1.18,0,0,0,1.18-1.18V1.23a.48.48,0,0,0-.48-.48Zm0,0"/></g></g></svg>