<svg xmlns="http://www.w3.org/2000/svg" viewBox="0 0 230.92 53.69"><defs><style>.cls-1{fill:#24b8eb;}.cls-2{fill:#ffb900;}.cls-3{fill:#006686;}.cls-4{fill:#fff;}</style></defs><title>Logo</title><g id="Слой_2" data-name="Слой 2"><g id="Слой_11" data-name="Слой 11"><path class="cls-1" d="M16.21,19.3h8.65V29.88a19.81,19.81,0,0,1-1.75,1,14,14,0,0,1-2.38,1,22.4,22.4,0,0,1-3.06.71,23.48,23.48,0,0,1-3.84.29A17.23,17.23,0,0,1,8.11,32a10.59,10.59,0,0,1-4.36-2.86A13.16,13.16,0,0,1,1,24.06a25.84,25.84,0,0,1-1-7.61A25.89,25.89,0,0,1,1,8.86a13.3,13.3,0,0,1,2.76-5.1A10.46,10.46,0,0,1,8.07.9,17.11,17.11,0,0,1,13.76,0a23.4,23.4,0,0,1,3.85.29,22.55,22.55,0,0,1,3,.71A14,14,0,0,1,23,2q1,.55,1.82,1v10.2H16.21V10.28A3.52,3.52,0,0,0,15.6,8a2.29,2.29,0,0,0-1.84-.71A2.29,2.29,0,0,0,11.93,8a3.51,3.51,0,0,0-.61,2.31V22.61a3.51,3.51,0,0,0,.61,2.31,2.29,2.29,0,0,0,1.84.71,2.29,2.29,0,0,0,1.84-.71,3.52,3.52,0,0,0,.61-2.31Z"/><path class="cls-1" d="M40.64,25.63H42.8l-.61-3.22H37.32l-.58,3.22h2.16v6.69H26.59V25.63H28L34.12.57H47.23l6.09,25.06h1.44v6.69H40.64Zm-2.52-7.55h3.31L40,9.92h-.36Z"/><path class="cls-1" d="M71.69,32.32H56V25.63h2.16V7.26H56V.57H72.16a14.47,14.47,0,0,1,4,.51,7.27,7.27,0,0,1,3,1.65,7.49,7.49,0,0,1,1.89,3,13.1,13.1,0,0,1,.67,4.45A13.06,13.06,0,0,1,81,14.63a7.5,7.5,0,0,1-1.89,3,7.25,7.25,0,0,1-3,1.65,14.44,14.44,0,0,1-4,.51H68.24v5.88h3.46ZM69.46,14A2,2,0,0,0,71,13.35a3,3,0,0,0,.54-2V9.88a3.07,3.07,0,0,0-.52-2,2,2,0,0,0-1.57-.61H68.24V14Z"/><path class="cls-1" d="M83,.57H97.42V7.26H95.26V25.63h2.16v6.69H83V25.63h2.16V7.26H83Z"/><path class="cls-1" d="M98.5.57h27.09v9.92h-6.2V7.26h-2.31V25.63h2.52v6.69H104.48V25.63H107V7.26H104.7v3.22H98.5Z"/><path class="cls-1" d="M140.36,25.63h2.16l-.61-3.22H137l-.58,3.22h2.16v6.69H126.31V25.63h1.44L133.84.57H147L153,25.63h1.44v6.69H140.36Zm-2.52-7.55h3.31l-1.48-8.16h-.36Z"/><path class="cls-1" d="M155.64.57H171.2V7.26h-3.31V25.63h3.24V21.88h7.17V32.32H155.64V25.63h2.16V7.26h-2.16Z"/><circle class="cls-1" cx="192.91" cy="27.06" r="5.85"/><circle class="cls-2" cx="208.7" cy="27.06" r="5.85"/><circle class="cls-3" cx="225.08" cy="27.06" r="5.85"/><path class="cls-4" d="M3.14,53.47V42.2H4.66v9.88H8.91v1.38Z"/><path class="cls-4" d="M23.63,53.69a4.35,4.35,0,0,1-3.43-1.59,5.46,5.46,0,0,1-1-1.85,8.46,8.46,0,0,1,0-4.84,5.46,5.46,0,0,1,1-1.85,4.54,4.54,0,0,1,5.34-1.17,4.35,4.35,0,0,1,1.51,1.17,5.55,5.55,0,0,1,1,1.85,8.46,8.46,0,0,1,0,4.84,5.55,5.55,0,0,1-1,1.85,4.35,4.35,0,0,1-1.51,1.18A4.45,4.45,0,0,1,23.63,53.69Zm0-10.33a2.63,2.63,0,0,0-1.36.35,3,3,0,0,0-1,.95,4.57,4.57,0,0,0-.6,1.42,7.75,7.75,0,0,0,0,3.51,4.57,4.57,0,0,0,.6,1.42,3,3,0,0,0,1,.95A2.85,2.85,0,0,0,25,52,3,3,0,0,0,26,51a4.44,4.44,0,0,0,.59-1.42,8.06,8.06,0,0,0,0-3.51A4.44,4.44,0,0,0,26,44.66a3,3,0,0,0-1-.95A2.63,2.63,0,0,0,23.63,43.36Z"/><path class="cls-4" d="M43.48,53.69a4.31,4.31,0,0,1-3.39-1.59,5.66,5.66,0,0,1-1-1.85,7.69,7.69,0,0,1-.36-2.44,7.56,7.56,0,0,1,.36-2.41,5.67,5.67,0,0,1,1-1.84,4.3,4.3,0,0,1,1.53-1.17,4.63,4.63,0,0,1,2-.41,6.38,6.38,0,0,1,.76,0,7.62,7.62,0,0,1,.79.14q.39.09.73.2a3.92,3.92,0,0,1,.62.26L46.31,44a8.89,8.89,0,0,0-1.3-.42,5.84,5.84,0,0,0-1.38-.18,2.9,2.9,0,0,0-1.45.35,3,3,0,0,0-1,.95,4.33,4.33,0,0,0-.6,1.42,7.65,7.65,0,0,0-.19,1.75,7.22,7.22,0,0,0,.21,1.79A4.17,4.17,0,0,0,41.22,51a3.05,3.05,0,0,0,1.06.93,3.16,3.16,0,0,0,1.5.34,4.69,4.69,0,0,0,.72-.06,2.8,2.8,0,0,0,.78-.24V49.2H43.94V47.82h2.85v5a3.6,3.6,0,0,1-.68.33,8.85,8.85,0,0,1-.85.27,7.52,7.52,0,0,1-.92.19A6.43,6.43,0,0,1,43.48,53.69Z"/><path class="cls-4" d="M58,53.47V42.2h1.51V53.47Z"/><path class="cls-4" d="M74,53.69a8,8,0,0,1-1.86-.2A4.35,4.35,0,0,1,70.76,53L71,51.18a3.31,3.31,0,0,0,1.33.84,4.79,4.79,0,0,0,1.62.29,2.46,2.46,0,0,0,1.6-.46,1.55,1.55,0,0,0,.56-1.26,1.53,1.53,0,0,0-.16-.73,1.85,1.85,0,0,0-.47-.55,3.83,3.83,0,0,0-.76-.47l-1-.47q-.72-.32-1.29-.62a4.71,4.71,0,0,1-.95-.64,2.39,2.39,0,0,1-.6-.81,2.74,2.74,0,0,1-.21-1.13,3.48,3.48,0,0,1,.23-1.27,2.78,2.78,0,0,1,.67-1,3.11,3.11,0,0,1,1.09-.67,4.32,4.32,0,0,1,1.5-.24A6.76,6.76,0,0,1,75,42a7.17,7.17,0,0,1,.84.16,5.47,5.47,0,0,1,.76.25,3.52,3.52,0,0,1,.59.31L77,44.31a6.87,6.87,0,0,0-1.49-.73,3.93,3.93,0,0,0-1.2-.22,2.33,2.33,0,0,0-1.48.47,1.48,1.48,0,0,0-.6,1.22,1.23,1.23,0,0,0,.17.66,1.9,1.9,0,0,0,.44.49,3.09,3.09,0,0,0,.64.39l.77.33q.85.35,1.5.68a4.57,4.57,0,0,1,1.09.72,2.68,2.68,0,0,1,.66.94,3.45,3.45,0,0,1,.23,1.33,3,3,0,0,1-.87,2.29A4.15,4.15,0,0,1,74,53.69Z"/><path class="cls-4" d="M92.07,43.59v9.88H90.55V43.59H87.77V42.2h7.08v1.38Z"/><path class="cls-4" d="M105.7,53.47V42.2h1.51V53.47Z"/><path class="cls-4" d="M123.1,53.69a4.54,4.54,0,0,1-1.93-.41,4.4,4.4,0,0,1-1.53-1.18,5.57,5.57,0,0,1-1-1.85,8.28,8.28,0,0,1,0-4.84,5.66,5.66,0,0,1,1-1.85,4.32,4.32,0,0,1,1.52-1.17,4.53,4.53,0,0,1,1.93-.41,5.73,5.73,0,0,1,1.48.19,5.88,5.88,0,0,1,1.24.47l-.16,1.42-1.2-.46a3.75,3.75,0,0,0-1.36-.23,2.67,2.67,0,0,0-1.37.35,3,3,0,0,0-1,.95,4.46,4.46,0,0,0-.6,1.42,7.75,7.75,0,0,0,0,3.51,4.46,4.46,0,0,0,.6,1.42,3,3,0,0,0,1,.95,2.7,2.7,0,0,0,1.38.35,3.82,3.82,0,0,0,1.34-.23l1.2-.45.16,1.42a6,6,0,0,1-1.25.46A5.8,5.8,0,0,1,123.1,53.69Z"/><path class="cls-4" d="M139.47,53.69a8,8,0,0,1-1.86-.2,4.35,4.35,0,0,1-1.34-.52l.19-1.79a3.31,3.31,0,0,0,1.33.84,4.79,4.79,0,0,0,1.62.29,2.46,2.46,0,0,0,1.6-.46,1.55,1.55,0,0,0,.56-1.26,1.53,1.53,0,0,0-.16-.73,1.85,1.85,0,0,0-.47-.55,3.83,3.83,0,0,0-.76-.47l-1-.47q-.72-.32-1.29-.62a4.71,4.71,0,0,1-.95-.64,2.39,2.39,0,0,1-.6-.81,2.74,2.74,0,0,1-.21-1.13,3.48,3.48,0,0,1,.23-1.27,2.77,2.77,0,0,1,.67-1,3.11,3.11,0,0,1,1.09-.67,4.32,4.32,0,0,1,1.5-.24,6.76,6.76,0,0,1,.87.06,7.17,7.17,0,0,1,.84.16,5.47,5.47,0,0,1,.76.25,3.52,3.52,0,0,1,.59.31l-.19,1.56a6.87,6.87,0,0,0-1.49-.73,3.93,3.93,0,0,0-1.2-.22,2.33,2.33,0,0,0-1.48.47,1.48,1.48,0,0,0-.6,1.22,1.23,1.23,0,0,0,.17.66,1.9,1.9,0,0,0,.44.49,3.09,3.09,0,0,0,.64.39l.77.33q.85.35,1.5.68a4.57,4.57,0,0,1,1.09.72,2.68,2.68,0,0,1,.66.94,3.45,3.45,0,0,1,.23,1.33,3,3,0,0,1-.87,2.29A4.15,4.15,0,0,1,139.47,53.69Z"/></g></g></svg>