<svg xmlns="http://www.w3.org/2000/svg" viewBox="0 0 69.91 59.42"><defs><style>.cls-1{fill:#24b8eb;}</style></defs><title>MEXICO</title><g id="Слой_2" data-name="Слой 2"><g id="Слой_11" data-name="Слой 11"><path class="cls-1" d="M54.47,57.13c.28,0,3,1,3.4.31s-1.63-2.68-1.33-2.79.76-1.8,1.19-1.71,4.33,1,4.56.94,1.28-1.3,1.93-1.22c.3,0,.68.49,1,1,.86-.52,1.43-2,1.82-3.17.48-1.47.08-2.07,1-2.74s1.8-.56,1.81-1.77-1.28-.26-2.05-1-1.63-.51-4-.65-3.6.59-3.82,2.22-1,.73-1.19,2.13-2.08,1.08-2.14,1.94-1.45-.3-1.83-.67-5.47.09-6.16.06-1.6-1.78-2.56-1.92-1-1.67-.92-2.86-1.43-2.61-2-3.83-.19-3.58.07-5.09a17.79,17.79,0,0,1,2.28-6.83,3.81,3.81,0,0,0,.44-1,2.1,2.1,0,0,0-1-.61c-1-.14-2.83-1.88-3.25-2s-.15-1.08-.39-1.69.2-1.57-.2-2a7.59,7.59,0,0,1-1.68-3.88c-.13-1.76-2.87-3.19-3.93-3.47s-2.12,1.85-2.44,1.91-2.07-1.66-2.6-2.09A1.72,1.72,0,0,1,30,12.85c.15-.71-.87-2.1-1.2-2.29a33.42,33.42,0,0,1-2.32-3.14L22.6,6.6l-1.05.9L14.41,6.09s-5-3.15-6-3.59A12.18,12.18,0,0,1,5.92.43L0,0A10.41,10.41,0,0,0,.89,2.36,12.82,12.82,0,0,1,2,7.69c-.07.91,1.39,2,2.6,3.15a3.39,3.39,0,0,1,.53,3.59c-.27.47-1.82-.72-2-.25s1.72,2.9,2.63,3S7,17.87,8.1,19.39s.73,2.93.08,3.26S9,24.27,10.55,25.8a6.46,6.46,0,0,1,2,3.77c0,.65.93.25,1.38-.53s-.34-1.17-.14-2.12-1.29-1.08-1.93-1.33.38-1.55-.15-2.35a9.79,9.79,0,0,1-.88-3.89c-.08-1.29-1.55-2.87-2-4.35a9.09,9.09,0,0,0-1.44-3.14c-.43-.44.89-.68.55-1.28s-1-.68-1.77-1.24a2.19,2.19,0,0,1-1-2.23,16.17,16.17,0,0,0-.06-3.9c-.13-.78.74-.49.95-.1s.36.77.8.63a1,1,0,0,1,1.22.83c.15.67,1.21.31,1.6.68s-1.13.41-.21,3.26.22,1.2-.14,2.93.7,1.13,1,.91.94.77,1.48,1.81,1.92,1.38,1.81,1.88A1.69,1.69,0,0,0,14.54,18c.91.36.86,1.45,1.45,1.69s.56.93.08,1.58-.28,1.34,1.15,2.27.69.89,1.67,2.31A74.28,74.28,0,0,1,23,33a10.33,10.33,0,0,1,.66,3c.12.84-.8,1.05-.49,1.81s-.91.22-1,.73S22.4,41.64,23.6,42s2.28,2.15,3.11,3.19,2.36,1.18,3.75,2,2.39,2.46,4.43,3.52a23.06,23.06,0,0,1,5.17,3.62c1.21,1.18,3,1.15,5.12.77s3.4.93,4.42,1.61a14.78,14.78,0,0,1,2.26,2.66A22.56,22.56,0,0,1,54.47,57.13Z"/></g></g></svg>