<svg xmlns="http://www.w3.org/2000/svg" viewBox="0 0 53.95 55.62"><defs><style>.cls-1{fill:#24b8eb;}</style></defs><title>Our Team</title><g id="Слой_2" data-name="Слой 2"><g id="Слой_11" data-name="Слой 11"><path class="cls-1" d="M48.56,38.64a4.38,4.38,0,0,0,0-6.19l-3.33-3.33.27-.41A15,15,0,0,0,48,20.46v-.25l5.77-5.77a.67.67,0,0,0,.2-.47.67.67,0,0,0-.2-.47L40.45.19a.69.69,0,0,0-.95,0L36.59,3.11l-.39-.19a7.38,7.38,0,0,0-8.5,1.39l-6,6-.29,0a15.69,15.69,0,0,0-2.4,0l-.27,0L14.44,6a.69.69,0,0,0-.95,0L.2,19.32a.67.67,0,0,0,0,.95l2.21,2.21-.87,8.44a4.27,4.27,0,0,0,3.94,5.92l.86,0,0,.86a4.27,4.27,0,0,0,4.27,4.27l.86,0,0,.66A4.27,4.27,0,0,0,15.66,47l.82,0v.66a4.28,4.28,0,0,0,1.24,3.21,4.36,4.36,0,0,0,5.3.59l.43-.27.34.38,2.81,2.82a4.49,4.49,0,0,0,6.19,0,4.35,4.35,0,0,0,1.28-3.1c0-.08,0-.16,0-.23l0-.68.68,0A4.38,4.38,0,0,0,39.35,46c0-.08,0-.15,0-.23l0-.69.69,0a4.29,4.29,0,0,0,3.33-1.27,4.35,4.35,0,0,0,1.28-3.1c0-.08,0-.15,0-.23l0-.68.92,0A4.35,4.35,0,0,0,48.56,38.64ZM40,1.61,52.33,14l-4.45,4.45-.23-1.1a15,15,0,0,0-4.08-7.56L37.71,3.88ZM23.43,10.47l5.21-5.21a6,6,0,0,1,8.55,0l5.44,5.44a13.7,13.7,0,0,1,2.05,16.8l-.4.67-13-13-.14-.11-.33-.2.28-2.9a.67.67,0,0,0-.6-.73.68.68,0,0,0-.49.15.66.66,0,0,0-.24.45l-.91,9.36a3.23,3.23,0,1,1-6.43-.62Zm-18,25a2.93,2.93,0,0,1-2.07-5l1.94-1.94a3,3,0,0,1,4.15,0,2.93,2.93,0,0,1,0,4.15L7.55,34.64A2.92,2.92,0,0,1,5.48,35.5Zm5.09,5.1a2.93,2.93,0,0,1-2.07-5l3.69-3.69a3,3,0,0,1,4.15,0,2.94,2.94,0,0,1,0,4.15l-3.69,3.69A2.91,2.91,0,0,1,10.57,40.59Zm5.09,5.09a2.93,2.93,0,0,1-2.07-5l5.24-5.24a3,3,0,0,1,4.15,0,2.93,2.93,0,0,1,0,4.15l-5.24,5.24A2.91,2.91,0,0,1,15.66,45.68Zm7.17,4.23a2.93,2.93,0,0,1-4.15-4.15l3.69-3.69a3,3,0,0,1,4.15,0,2.94,2.94,0,0,1,0,4.15ZM43.31,37.69,42.58,37a.69.69,0,0,0-.95,0,.67.67,0,0,0,0,.95l.73.73a3,3,0,1,1-4.3,4.3l-.73-.73a.67.67,0,0,0-1.14.47.66.66,0,0,0,.2.47l.73.73a3,3,0,0,1-4.3,4.3l-.73-.73a.68.68,0,0,0-.95,0,.67.67,0,0,0,0,.95l.73.73a3,3,0,0,1-4.3,4.3l-3.18-3.18,3.08-3.08A4.27,4.27,0,0,0,25.3,40l-.72-.15.28-.68a4.28,4.28,0,0,0-.93-4.65,4.34,4.34,0,0,0-4.65-.93l-.68.28-.15-.72A4.24,4.24,0,0,0,17.28,31a4.34,4.34,0,0,0-4.84-.84l-.69.33-.17-.74a4.25,4.25,0,0,0-1.15-2.08,4.37,4.37,0,0,0-6,0L3.19,28.82l.09-1.62.49-4.9a.66.66,0,0,0-.19-.54l-2-2L14,7.43l4,4a.69.69,0,0,0,.5.2,14.46,14.46,0,0,1,2.87,0l.6.06-.85,8.75a4.57,4.57,0,1,0,9.09.88l.47-4.89L47.61,33.39a3,3,0,0,1,0,4.3A3.11,3.11,0,0,1,43.31,37.69Z"/><polygon class="cls-1" points="48.62 20.44 48.62 20.44 48.62 20.44 48.62 20.44"/></g></g></svg>