<svg xmlns="http://www.w3.org/2000/svg" viewBox="0 0 34.66 50.94"><defs><style>.cls-1{fill:#24b8eb;}</style></defs><title>PERU2</title><g id="Слой_2" data-name="Слой 2"><g id="Слой_11" data-name="Слой 11"><path class="cls-1" d="M17.42,1h0a3.8,3.8,0,0,1,.21.54c.23.66.6,1.75,1.84,1.87a1.08,1.08,0,0,1,.8.62,1.78,1.78,0,0,0,.79,1.53,2.9,2.9,0,0,1,.25.23,1.33,1.33,0,0,0,.34,1,2.91,2.91,0,0,0,2.24.68A4.32,4.32,0,0,0,26.06,7a.87.87,0,0,1,.44-.13h.06a1.64,1.64,0,0,0,.84.22A3.55,3.55,0,0,0,28.28,7l.31-.07a7.67,7.67,0,0,1,1.11.54l-.2.22c-.64.72-1.44,1.63-1,2.61a3,3,0,0,0-.33.24,2.1,2.1,0,0,1-1.07.35,4.39,4.39,0,0,0-2.21.84,3.25,3.25,0,0,1-1.05.5A2.09,2.09,0,0,0,22.14,14a1.88,1.88,0,0,1-.34.75,2.72,2.72,0,0,0-.55,2,3.59,3.59,0,0,0-.91.65,2,2,0,0,0-.55,1.92v0c-.78,1.06,0,2.28.59,3.19l.14.22c.14.22.28.42.42.62.31.45.59.83.56,1.08a1.87,1.87,0,0,0,.45,1.5,2.14,2.14,0,0,0,1.49.66,1.85,1.85,0,0,0,1.87,1.53c.3,0,.59,0,.88,0s.58,0,.84,0a2.88,2.88,0,0,0,1.36-.28A3.94,3.94,0,0,0,29,30.67a1.29,1.29,0,0,0,.93.4A1.38,1.38,0,0,0,30.4,31a3.87,3.87,0,0,1,1.18-.14H32c.26.56.59,1.19.89,1.77s.63,1.21.73,1.47l-.14.11a3.23,3.23,0,0,0-.35.29c-.51.51-.53,1.31-.1,4.29l0,.33a4.69,4.69,0,0,1-.26.53c-.27.5-.75,1.38-.33,2.09l-.19.38a3.52,3.52,0,0,0-.51,1.54,1.76,1.76,0,0,0,.94,1.52,3.6,3.6,0,0,1-.84,1.08A1.75,1.75,0,0,0,31.14,48a4.37,4.37,0,0,0-.22.66,4.24,4.24,0,0,1-.31.86l-.13-.07a7.48,7.48,0,0,1-2.67-2c-.27-.46-.89-1.54-8.28-5.23a13.75,13.75,0,0,1-3.2-2.17,11,11,0,0,0-1-.78,1.71,1.71,0,0,1-.7-1.2c.24-.41.66-1.53-1.74-4.58a43.52,43.52,0,0,1-4.09-7.8c-.29-.71-.49-1.26-.67-1.76A6.93,6.93,0,0,0,6.7,21.22a10.43,10.43,0,0,1-1-1.53,8.4,8.4,0,0,0-1.8-2.34c-.33-.25-.74-.5-1.18-.76-.24-.14-.55-.34-.83-.52l.08-.1a1.3,1.3,0,0,0,.18-1.15,6.42,6.42,0,0,0-.44-1.07c-.21-.46-.78-1.67-.66-2a5.64,5.64,0,0,1,.4-.71,2,2,0,0,0,.8,1.43A1.91,1.91,0,0,0,3.54,13a2.82,2.82,0,0,0,.61-.08h0c.39.53,1,1.29,1.84,1.29,1.12,0,1.63-1.2,1.82-1.65s.33-.84.48-1.26c.34-.94.86-2.37,1.35-2.52l.49-.14c1.44-.4,3.85-1.07,5.38-3.12a5.82,5.82,0,0,0,1.23-2.4.47.47,0,0,0,0-.11l.1-.09a1.66,1.66,0,0,0,.67-1.16A1.62,1.62,0,0,0,17.42,1m-.19-1a8.18,8.18,0,0,0-1.62.22c.91,1,1.23,1.46.63,1.94-.8.64,0,.75-1.51,2.77s-4.1,2.52-5.36,2.9-1.76,2.71-2.46,4.35c-.32.75-.61,1-.9,1s-.68-.4-1.06-.91a.79.79,0,0,0-.66-.4c-.25,0-.5.11-.77.11a.92.92,0,0,1-.65-.28c-.82-.75-.44-.75,0-1.39.24-.34,0-.88-.53-1.4-.9.19-1.81,1.43-2.26,2.38s.85,3,1,3.75-.73.06-.85.73,2,1.63,3,2.36S5.06,20.94,6,21.9s1,1.81,1.93,4.17a43.74,43.74,0,0,0,4.23,8c1.33,1.69,1.93,3,1.63,3.51a2.32,2.32,0,0,0,1,2.48,21.35,21.35,0,0,0,4.29,3c2.54,1.27,7.19,3.68,7.86,4.83s2.84,2.23,3.26,2.48c.12.07.15.26.15.51a3.88,3.88,0,0,1,.59-.43c.81-.4.89-1.77,1.13-2.18,0-.06.06-.08.09-.09-.07-.49-.07-1,.23-1.12A3.88,3.88,0,0,0,33.85,45c0-.56-1-.56-1-1.29s1.13-1.94.64-2.34.73-1.61.65-2.26-.56-3.55-.24-3.87,1-.56.73-1.45c-.26-.7-1.4-2.65-1.88-3.83a8.1,8.1,0,0,0-1.12-.08,4.74,4.74,0,0,0-1.52.2l-.13,0c-.73,0-.51-2.58-.51-3.57,0-.41-.14-.58-.33-.58s-.69.38-.88.82-.61.47-1.18.47-1.11-.07-1.72-.07c-1.26,0-.67-1.54-1.4-1.54h-.29c-.69,0-1.2-.33-1.13-1.06s-.57-1.45-1.13-2.34-1.21-1.77-.73-2.34-.32-1,.4-1.77,1.45-.48,1.21-1.45.8-1.53.89-2.58,1.29-.73,2.42-1.61,2.34-.4,3.3-1.21a1.38,1.38,0,0,1,.91-.37c.44,0,.82.22,1.22.22h.08c-.41-.56-1.4-.84-1.62-1.29s1-1.61,1.42-2.28-1.52-1.42-2-1.61a.63.63,0,0,0-.23,0c-.37,0-.85.21-1.23.21A.65.65,0,0,1,27.07,6a1.11,1.11,0,0,0-.57-.14,1.85,1.85,0,0,0-1,.33,3.8,3.8,0,0,1-1.55.24c-.82,0-1.63-.16-1.58-.62.09-.85-1.14-1.14-1-1.71s-.66-1.61-1.71-1.71S18.72.62,18,.14A1.44,1.44,0,0,0,17.23,0Z"/></g></g></svg>