<svg xmlns="http://www.w3.org/2000/svg" viewBox="0 0 34.66 50.94"><defs><style>.cls-1{fill:#24b8eb;}</style></defs><title>PERU</title><g id="Слой_2" data-name="Слой 2"><g id="Слой_11" data-name="Слой 11"><path class="cls-1" d="M32.08,48.34c0-.06.06-.08.09-.09-.07-.49-.07-1,.23-1.12A3.88,3.88,0,0,0,33.85,45c0-.56-1-.56-1-1.29s1.13-1.94.64-2.34.73-1.61.65-2.26-.56-3.55-.24-3.87,1-.56.73-1.45c-.26-.7-1.4-2.65-1.88-3.83a6.27,6.27,0,0,0-2.64.13c-.89.32-.64-2.5-.64-3.55s-.89-.48-1.21.24-1.61.4-2.9.4-.64-1.61-1.45-1.53-1.45-.24-1.37-1-.57-1.45-1.13-2.34-1.21-1.77-.73-2.34-.32-1,.4-1.77,1.45-.48,1.21-1.45.8-1.53.89-2.58,1.29-.73,2.42-1.61,2.34-.4,3.3-1.21,1.53-.1,2.21-.15c-.41-.56-1.4-.84-1.62-1.29s1-1.61,1.42-2.28-1.52-1.42-2-1.61-1.33.38-1.8.09a1.63,1.63,0,0,0-1.61.19c-.38.28-3.23.47-3.13-.38s-1.14-1.14-1-1.71-.66-1.61-1.71-1.71S18.72.62,18,.14a4.16,4.16,0,0,0-2.35.07c.91,1,1.23,1.46.63,1.94-.8.64,0,.75-1.51,2.77s-4.1,2.52-5.36,2.9-1.76,2.71-2.46,4.35-1.26,1.07-2,.13-1.26.19-2.08-.57-.44-.75,0-1.39c.24-.34,0-.88-.53-1.4-.9.19-1.81,1.43-2.26,2.38s.85,3,1,3.75-.73.06-.85.73,2,1.63,3,2.36S5.06,20.94,6,21.9s1,1.81,1.93,4.17a43.73,43.73,0,0,0,4.23,8c1.33,1.69,1.93,3,1.63,3.51a2.32,2.32,0,0,0,1,2.48,21.32,21.32,0,0,0,4.29,3c2.54,1.27,7.19,3.68,7.86,4.83s2.84,2.23,3.26,2.48c.12.07.15.26.15.51a3.87,3.87,0,0,1,.59-.43C31.76,50.11,31.84,48.74,32.08,48.34Z"/></g></g></svg>