<svg xmlns="http://www.w3.org/2000/svg" viewBox="0 0 41.76 44.09"><defs><style>.cls-1{fill:#9db0c1;}</style></defs><title>Project Logistics</title><g id="Слой_2" data-name="Слой 2"><g id="Слой_11" data-name="Слой 11"><path class="cls-1" d="M30.11,41.38H28.47a.48.48,0,0,1,0-1h1.64a1,1,0,0,0,1-1V34.28a6.32,6.32,0,0,0-.68-2.58l-3.86-6.85a2.38,2.38,0,0,0-1.82-1.06H22.29a1,1,0,0,0-1,1v6.47a1,1,0,0,0,1,1h5.26a.48.48,0,0,1,0,1H22.29a2,2,0,0,1-2-2V24.81a2,2,0,0,1,2-2h2.48a3.33,3.33,0,0,1,2.66,1.56l3.86,6.85a7.23,7.23,0,0,1,.8,3.05v5.11a2,2,0,0,1-2,2Zm0,0"/><path class="cls-1" d="M16.57,18.76H2a2,2,0,0,0-2,2V39.39a2,2,0,0,0,2,2H5.05a3.18,3.18,0,1,0,1.48-3.2A.48.48,0,0,0,7,39,2.22,2.22,0,1,1,6,40.9a.48.48,0,0,0-.48-.48H2a1,1,0,0,1-1-1V20.75a1,1,0,0,1,1-1H16.57a1,1,0,0,1,1,1v2.56a.48.48,0,1,0,1,0V20.75a2,2,0,0,0-2-2Zm0,0"/><path class="cls-1" d="M23.49,37.71a3.17,3.17,0,0,0-1.67.47.48.48,0,1,0,.51.82,2.22,2.22,0,1,1-1.06,1.9.48.48,0,0,0-.48-.48H12.66a.48.48,0,0,0,0,1h7.68a3.19,3.19,0,1,0,3.15-3.67Zm0,0"/><path class="cls-1" d="M38.2,16.63H26.32A2.65,2.65,0,0,1,23.67,14V3.87a.48.48,0,1,1,1,0V14a1.69,1.69,0,0,0,1.68,1.68H38.2a.48.48,0,0,1,0,1Zm0,0"/><path class="cls-1" d="M34,30.06a.48.48,0,0,1-.26-.89,15.37,15.37,0,0,0,7-14.79A15.29,15.29,0,0,0,10.2,16.22a.48.48,0,0,1-.48.48h0a.48.48,0,0,1-.48-.48A16.26,16.26,0,1,1,34.23,30a.49.49,0,0,1-.26.08Zm0,0"/></g></g></svg>