<svg xmlns="http://www.w3.org/2000/svg" viewBox="0 0 45.4 30.55"><defs><style>.cls-1{fill:#9db0c1;}</style></defs><title>Sea Freight</title><g id="Слой_2" data-name="Слой 2"><g id="Слой_11" data-name="Слой 11"><path class="cls-1" d="M45.29,16.2a1.15,1.15,0,0,0-1.06-.54H29.14A1.37,1.37,0,0,1,28,14.89L25.38,8.34a2.34,2.34,0,0,0-2-1.38H12.81V1h4.25V4a.48.48,0,1,0,1,0V.87A.87.87,0,0,0,17.16,0H12.71a.87.87,0,0,0-.87.87V7H8.26A1.65,1.65,0,0,0,6.62,8.6v2.32a.48.48,0,0,0,1,0V8.6a.68.68,0,0,1,.68-.68H23.34a1.37,1.37,0,0,1,1.14.77l2.62,6.55a2.34,2.34,0,0,0,2,1.38H44.22a.6.6,0,0,1,.21,0,.38.38,0,0,1-.08.21l-7.47,12a1.85,1.85,0,0,1-1.37.76h-29a1.32,1.32,0,0,1-1.11-.77L1,17.06a.36.36,0,0,1,0-.32.36.36,0,0,1,.3-.11H3.62a.48.48,0,1,0,0-1H1.3a1.3,1.3,0,0,0-1.1.53A1.3,1.3,0,0,0,.1,17.4L4.5,29.15a2.29,2.29,0,0,0,2,1.4h29a2.83,2.83,0,0,0,2.19-1.21l7.47-12a1.15,1.15,0,0,0,.11-1.18Zm0,0"/><path class="cls-1" d="M15.91,17.68h4.73a.48.48,0,0,0,0-1H15.91a1.79,1.79,0,0,0-1.79,1.79v2.93H10a1.79,1.79,0,0,0-1.79,1.79V26a.48.48,0,1,0,1,0V23.22A.82.82,0,0,1,10,22.4h15a.82.82,0,0,1,.82.82V26a.48.48,0,1,0,1,0V23.22a1.79,1.79,0,0,0-1.79-1.79h-10V18.51a.82.82,0,0,1,.82-.82Zm0,0"/><path class="cls-1" d="M15.91,24.44v1.05a.82.82,0,0,1-.82.82H11.23a.48.48,0,0,0,0,1h3.86a1.79,1.79,0,0,0,1.79-1.79V24.44a.48.48,0,0,0-1,0Zm0,0"/><path class="cls-1" d="M18.69,24a.48.48,0,0,0-.48.48v1.05A1.79,1.79,0,0,0,20,27.28h3.86a.48.48,0,0,0,0-1H20a.82.82,0,0,1-.82-.82V24.44a.48.48,0,0,0-.48-.48Zm0,0"/></g></g></svg>