<svg xmlns="http://www.w3.org/2000/svg" viewBox="0 0 49.19 49.14"><defs><style>.cls-1{fill:#ffb900;fill-rule:evenodd;}</style></defs><title>Search</title><g id="Слой_2" data-name="Слой 2"><g id="Слой_11" data-name="Слой 11"><path class="cls-1" d="M49.19,48.16,32.65,32a18.45,18.45,0,0,0,0-26.48,19.42,19.42,0,0,0-27.06,0A18.46,18.46,0,0,0,5.6,32a19.43,19.43,0,0,0,26,1l0,0L48.19,49.14ZM19.12,36.07A17.8,17.8,0,0,1,6.6,31a17.1,17.1,0,0,1,0-24.53,18,18,0,0,1,25.05,0,17.08,17.08,0,0,1,0,24.53c-.32.32-.66.62-1,.91a18,18,0,0,1-11.53,4.17Zm0,0"/></g></g></svg>