<svg xmlns="http://www.w3.org/2000/svg" viewBox="0 0 51.34 51.34"><defs><style>.cls-1{fill:#24b8eb;}</style></defs><title>Services</title><g id="Слой_2" data-name="Слой 2"><g id="Слой_11" data-name="Слой 11"><path class="cls-1" d="M25.7,51.34a25.64,25.64,0,0,1-3.54-.25,2.2,2.2,0,0,1-1.84-2.67A3.44,3.44,0,0,0,14,45.91a2.2,2.2,0,0,1-3.17.7,25.4,25.4,0,0,1-5.65-5.5,2.2,2.2,0,0,1,.59-3.18,3.43,3.43,0,0,0-.58-6.13,3.49,3.49,0,0,0-2.11-.11A2.2,2.2,0,0,1,.36,29.94a25.47,25.47,0,0,1-.1-7.85,2.19,2.19,0,0,1,2.65-1.83A3.51,3.51,0,0,0,5.05,20a3.44,3.44,0,0,0,.38-6.1,2.19,2.19,0,0,1-.66-3.15,25.41,25.41,0,0,1,5.46-5.62,2.22,2.22,0,0,1,1.7-.41,2.19,2.19,0,0,1,1.46,1A3.41,3.41,0,0,0,15,7.08a3.44,3.44,0,0,0,4.58-4A2.19,2.19,0,0,1,21.37.36,25.7,25.7,0,0,1,29.18.24a2.23,2.23,0,0,1,1.49.91A2.22,2.22,0,0,1,31,2.87,3.44,3.44,0,0,0,35.8,6.72a3.38,3.38,0,0,0,1.54-1.36,2.23,2.23,0,0,1,1.43-1,2.17,2.17,0,0,1,1.71.35,25.54,25.54,0,0,1,5.63,5.44,2.19,2.19,0,0,1-.55,3.16,3.43,3.43,0,0,0,2.71,6.21A2.19,2.19,0,0,1,51,21.27a25.59,25.59,0,0,1,.15,7.84A2.18,2.18,0,0,1,48.93,31a2.37,2.37,0,0,1-.47,0A3.44,3.44,0,0,0,46,37.29a2.19,2.19,0,0,1,.69,3.16,25.59,25.59,0,0,1-5.47,5.67,2.21,2.21,0,0,1-1.72.41,2.18,2.18,0,0,1-1.46-1,3.43,3.43,0,0,0-6.12.59,3.39,3.39,0,0,0-.1,2.12A2.19,2.19,0,0,1,30,51a25.37,25.37,0,0,1-4.35.38ZM17,42.59a5.06,5.06,0,0,1,4.62,3,5,5,0,0,1,.3,3.2.59.59,0,0,0,.5.72,24,24,0,0,0,7.4-.12.59.59,0,0,0,.47-.73,5,5,0,0,1,.15-3.12,5,5,0,0,1,6.52-2.9,5,5,0,0,1,2.45,2,.61.61,0,0,0,.4.27.63.63,0,0,0,.46-.11,23.87,23.87,0,0,0,5.13-5.31.59.59,0,0,0-.19-.86,5,5,0,0,1-2.06-2.3,5,5,0,0,1,5.7-7l.13,0a.6.6,0,0,0,.34-.11.59.59,0,0,0,.25-.41,24.12,24.12,0,0,0-.14-7.35.59.59,0,0,0-.26-.4.6.6,0,0,0-.47-.08,5,5,0,0,1-4-9.11.62.62,0,0,0,.26-.4.6.6,0,0,0-.11-.46A23.84,23.84,0,0,0,39.56,6a.6.6,0,0,0-.47-.09.59.59,0,0,0-.38.27A5,5,0,0,1,34.4,8.62a5,5,0,0,1-4.94-6.08.59.59,0,0,0-.5-.72,24.2,24.2,0,0,0-7.32.11.6.6,0,0,0-.48.73,5,5,0,0,1-.18,3,5.08,5.08,0,0,1-4.71,3.24A5,5,0,0,1,12,6.6a.6.6,0,0,0-.86-.15,23.87,23.87,0,0,0-5.12,5.26.59.59,0,0,0-.1.47.58.58,0,0,0,.28.39,5,5,0,0,1-3.69,9.25.58.58,0,0,0-.47.09.59.59,0,0,0-.25.41,23.82,23.82,0,0,0,.09,7.36.61.61,0,0,0,.26.4.62.62,0,0,0,.48.07,5,5,0,0,1,6,6.68,5,5,0,0,1-2,2.45.61.61,0,0,0-.27.4.59.59,0,0,0,.11.47,23.86,23.86,0,0,0,5.3,5.15.58.58,0,0,0,.47.09.59.59,0,0,0,.39-.28A5,5,0,0,1,17,42.59Zm8.71-8.21a8.71,8.71,0,1,1,3.53-.75,8.71,8.71,0,0,1-3.53.75Zm0-15.81a7,7,0,0,0-2.88.62,7.1,7.1,0,0,0,2.89,13.59,7,7,0,0,0,2.88-.61,7.1,7.1,0,0,0-2.89-13.59Zm0,0"/></g></g></svg>