<svg xmlns="http://www.w3.org/2000/svg" viewBox="0 0 42.63 31.57"><defs><style>.cls-1{fill:#24b8eb;}</style></defs><title>Showcase</title><g id="Слой_2" data-name="Слой 2"><g id="Слой_11" data-name="Слой 11"><path class="cls-1" d="M41.76,0H.87A.87.87,0,0,0,0,.87V30.69a.87.87,0,0,0,.87.87H41.76a.87.87,0,0,0,.87-.87V.87A.87.87,0,0,0,41.76,0Zm-.87,1.75V22.32l-9.1-7a.87.87,0,0,0-1,0l-6,3.89L13,11.08a.88.88,0,0,0-.94,0l-10.33,6V1.75ZM1.75,29.82V19.12l10.74-6.28,11.81,8.1a.88.88,0,0,0,1,0l5.94-3.87,9.67,7.45v5.29Zm0,0"/><path class="cls-1" d="M24.55,13.56a4.13,4.13,0,1,0-4.13-4.13,4.14,4.14,0,0,0,4.13,4.13Zm0-6.52a2.38,2.38,0,1,1-2.38,2.38A2.39,2.39,0,0,1,24.55,7Zm0,0"/></g></g></svg>