<svg xmlns="http://www.w3.org/2000/svg" viewBox="0 0 39.42 48.91"><defs><style>.cls-1{fill:#9db0c1;}</style></defs><title>Supply Chain</title><g id="Слой_2" data-name="Слой 2"><g id="Слой_11" data-name="Слой 11"><path class="cls-1" d="M38.66,24a2.09,2.09,0,0,0-1.8-.38L21.68,27a9.74,9.74,0,0,1-3.7,0L2.78,23.12l15-3.14a11.13,11.13,0,0,1,3.75,0l12.81,2.67a.48.48,0,1,0,.2-.95L21.78,19a12.13,12.13,0,0,0-4.15,0L2.49,22.19c-.29.06-1.19.25-1.2.9s.88.87,1.17.94l15.28,3.81a10.75,10.75,0,0,0,4.15.05l15.18-3.38a1.07,1.07,0,0,1,1.38,1.11V41.55a2.29,2.29,0,0,1-1.59,2.07L21.43,47.74a8.45,8.45,0,0,1-3.65,0L2.56,43.63A2.3,2.3,0,0,1,1,41.55V26.27a.48.48,0,0,0-1,0V41.55a3.25,3.25,0,0,0,2.31,3l15.23,4.11a8.41,8.41,0,0,0,2.09.24,8.38,8.38,0,0,0,2.06-.23l15.43-4.12a3.24,3.24,0,0,0,2.31-3V25.63A2.09,2.09,0,0,0,38.66,24Zm0,0"/><path class="cls-1" d="M19.79,0A21,21,0,0,0,10,2.49C7.9,3.62,5.78,5.33,5.78,6.6c0,2.32,5,5.17,5.25,5.29A.48.48,0,1,0,11.5,11C9.17,9.73,6.75,7.71,6.75,6.6S12.29,1,19.79,1s13,4.31,13,5.63-5.55,5.63-13,5.63a4.65,4.65,0,0,1-4.65-4.65A4.73,4.73,0,0,1,19.8,2.93a4.26,4.26,0,0,1,3.28,1.21A3.24,3.24,0,0,1,24,6.56a.48.48,0,1,0,1,.07,4.22,4.22,0,0,0-1.21-3.16,5.21,5.21,0,0,0-4-1.51,5.69,5.69,0,0,0-5.6,5.62,5.62,5.62,0,0,0,5.62,5.61c7.52,0,14-4.43,14-6.6S27.31,0,19.79,0Zm0,0"/></g></g></svg>