<svg xmlns="http://www.w3.org/2000/svg" viewBox="0 0 56.46 66.06"><defs><style>.cls-1{fill:#ffb900;}</style></defs><title>Testimonials</title><g id="Слой_2" data-name="Слой 2"><g id="Слой_11" data-name="Слой 11"><path class="cls-1" d="M33,66.06a21.23,21.23,0,0,1-14.79-5.92.74.74,0,1,1,1-1.08A19.81,19.81,0,0,0,33,64.59c11.29,0,20.31-11.11,21.66-21.48a.74.74,0,0,1,1.46.19C54.66,54.29,45,66.06,33,66.06Zm0,0"/><path class="cls-1" d="M38.41,53.46a.74.74,0,0,0-.74.74,2.05,2.05,0,0,1-2,2H32a2,2,0,0,1,0-4.1h3.64a.74.74,0,1,0,0-1.48H32a3.53,3.53,0,0,0-3.44,2.78C15,53.33,1.48,49.11,1.48,41.16,1.48,22,9.68,1.48,32.7,1.48A.74.74,0,1,0,32.7,0C21.09,0,12.31,4.8,6.6,14.27S0,35.2,0,41.16c0,4.31,3.24,7.91,9.36,10.42,5.13,2.1,11.92,3.29,19.18,3.36A3.53,3.53,0,0,0,32,57.72h3.64a3.53,3.53,0,0,0,3.52-3.53.74.74,0,0,0-.74-.74Zm0,0"/><path class="cls-1" d="M11.06,45.71a.74.74,0,0,1-.66-.41C8.71,41.82,8.47,35,11,30.11a9.22,9.22,0,0,1,6.78-5.24c3.5-.55,5.36-3.62,7-6.32,1.11-1.82,2.15-3.54,3.6-4.33a1.89,1.89,0,0,1,1.5-.21c.89.28,1.37,1.24,2,2.47,1.47,2.94,3.69,7.38,12.7,7.69l2.12.06c7,.2,9.16.25,9.75,7.11a.74.74,0,1,1-1.47.13c-.48-5.54-1.38-5.57-8.32-5.76l-2.13-.06C34.66,25.3,32,20,30.57,17.13c-.38-.76-.81-1.63-1.1-1.72a.56.56,0,0,0-.35.1c-1.1.6-2,2.16-3,3.81-1.72,2.83-3.86,6.35-8,7a7.71,7.71,0,0,0-5.7,4.46c-2.28,4.37-2.15,10.69-.61,13.86a.74.74,0,0,1-.66,1.06Zm0,0"/></g></g></svg>