<svg xmlns="http://www.w3.org/2000/svg" viewBox="0 0 77.55 38.21"><defs><style>.cls-1{fill:#24b8eb;}</style></defs><title>UNITED STATES</title><g id="Слой_2" data-name="Слой 2"><g id="Слой_11" data-name="Слой 11"><path class="cls-1" d="M76.42,3.86c0-.39-1.22-.08-1.78-.51s-1.5,1.54-1.7,2.37-1.66,1.74-1.66,1.74l-4.58,0a7.59,7.59,0,0,0-1.79,1.35l.05.07c.43.77-1.13,1.25-2.61,1.3a9.84,9.84,0,0,0-1.06.1,1.52,1.52,0,0,1,.08.53c0,.1-.17.21-.4.33-.23.46-2,1.35-3.06,1.88s-2.67.3-2.67-.59.83-.71,1-.3c.07.15.27,0,.54-.15a1.16,1.16,0,0,1-.22-1c-.34-.15.19-1.48-.5-1.7s-1.54,1-1.42.24,1.19-1.42.53-2.43-1.84-1-2.07-.24-1.07.42-1.36,1a4.86,4.86,0,0,0-.36,2.85c.24.95-.06,1.42-.95,2s-1.35-.82-1-2.55c.24-1.19.89-2.31.3-2.31s.77-1.42,2-1.72,2.79-.18,2.79-.53c0-.07.06-.12.15-.15a8.62,8.62,0,0,0-.76-.53.39.39,0,0,1-.16.21c-.49.34-.36-.53-1.24-.53S50.74,5.36,50,5s-.36-.83-1-.83.47-1.24-.47-.71-2.37,1.84-3,1.25-1.25.18-1.72-.3,1.66-1.78,2.67-1.72a1,1,0,0,0,.69-.27c-.53-.19-1.62-.62-1.91-.27s-.87.16-1.15-.2-.63.12-1.11-.43-.95-.16-1.22,0-.63-.2-1.15-.39-.12-.71-.55-1-.46.6-.46.6L2.77.86A1.24,1.24,0,0,0,2.9,1c.44.47.09.83.24,1.39s0,1.36-.41,1.36a.36.36,0,0,1-.18-.68c.33-.18.15-.83-.18-.83s-.27-.22-.26-.48A5.65,5.65,0,0,1,0,1.79a.38.38,0,0,1,0,.11A3.75,3.75,0,0,0,.71,3.67c.47.62.15,1,.59,1.25s.41.5,0,.44S1.18,5.69,1,6.58.92,9.3.83,9.87.09,11.35.47,11.94a2.78,2.78,0,0,1,.44,2.16,2,2,0,0,0,.15,1.75c.33.56.06,1.54.42,1.75a3.33,3.33,0,0,1,1,1.16c.33.53.62.21.68.74s.06.62.53.83.18.74.18,1,.62.83,1.39,1.51.12,1.24.68,1.24a3.31,3.31,0,0,1,1.66.68c.56.36.74.15,1.13.24A2.64,2.64,0,0,1,10,26.52a5,5,0,0,0,.3.84l3.07-.4a6.36,6.36,0,0,0,1.49.79c.54.13,3.45,1.2,3.45,1.2l3.8,0,.44-.57h2.09a17.45,17.45,0,0,0,1.52,1.36c.19.06.86.66.86,1a.9.9,0,0,0,.47.85,8,8,0,0,0,1.55.79c.16-.06.48-1.27,1-1.23s2.12.47,2.38,1.36a4,4,0,0,0,1.27,1.8c.25.19.13.73.32,1s.16.82.38.82,1.36.7,1.87.66a1.1,1.1,0,0,1,.56.21c.06-1.06-1-1.24-.39-1.72s0-1,.33-1.28,1-.47,1-.83.33-.36.8-.3,1.36-.77,1.3-1.1.09-.38.65-.27.47-.65.83-.53.65.33.68.06.39-.21.65.15,1,.45,1.1,0,.5,0,.89.41.56.3,1.13.33.56-.12.59-.47.62.77,1.19.83.12-.36-.3-.68.09-.47-.27-.74.44-.62,1.16-.59.68.21.95-.21.53,0,.53.36,1.16-.21,1.78-.21a1.36,1.36,0,0,1,1.24.89c.06.36.47.53.92.15s.83-.83,1.24-.42.83,1,1.33,1.48-.24,1.13,0,1.51,0,.92.56,1.33.06,1.27.53,1.39.86.86.92,1.16.95.68,1,.18.53-1.1.59-1.57a6.38,6.38,0,0,0-.74-2.7c-.39-.53.09-.65-.39-1.27a4.5,4.5,0,0,1-.74-2.61A5.52,5.52,0,0,1,59.51,27c.5-.44,1.07-.21,1.19-.68s.74-1.07,1.1-1.07.74.09.8-.3.65-.86,1.42-1,.33-.53.12-.89.18-.71.33-.47a.7.7,0,0,0,.92.06c.3-.21,1-.77.33-.8s-.8-.3-.42-.45.06-.86-.47-.92-.36-.33,0-.65-.47-.86-.86-1.13.24-.41.53-.47.06-1.42.21-1.75.65-.33.44,0-.5.86-.12,1.3a1.67,1.67,0,0,1,.36,1.6c-.15.68.15.5.59-.39s.5-1.66.21-1.75-.27-1,.06-.56.44.47.95-.06,1-1.45.71-1.66.15-.42.74-.38a4.1,4.1,0,0,0,2-.53c.29-.58-2,.27-2-.06s1.48-.65,2.16-.68.36-.95.65-.56a.79.79,0,0,0,1.13.09c.39-.24.09-.92-.36-1s.33-.42.18-.68a1.5,1.5,0,0,1,.86-1.45c.56-.12.3-.47.77-.47s.56-.56,1-1,1,.65,1.66.06a7.63,7.63,0,0,1,1-.75A4.77,4.77,0,0,1,76.42,3.86Z"/></g></g></svg>