<svg xmlns="http://www.w3.org/2000/svg" viewBox="0 0 77.55 38.21"><defs><style>.cls-1{fill:#24b8eb;}</style></defs><title>UNITED STATES2</title><g id="Слой_2" data-name="Слой 2"><g id="Слой_11" data-name="Слой 11"><path class="cls-1" d="M39.71,1.66a1.47,1.47,0,0,0,.55.36,3.81,3.81,0,0,1,.37.17,2.15,2.15,0,0,0,1,.31,1.32,1.32,0,0,0,.52-.11l.2-.1a1.69,1.69,0,0,0,1.17.51l0,0a2.43,2.43,0,0,0-.72.88,1.25,1.25,0,0,0,.25,1.38,1.53,1.53,0,0,0,1.1.46,2.59,2.59,0,0,0,.55-.07l.13,0a1.59,1.59,0,0,0,1.05.38,4.38,4.38,0,0,0,2.26-1,1.19,1.19,0,0,0,.54.26,2,2,0,0,0,.84.75l.19.08c-.7.52-1.25,1.2-1.17,1.84a1.08,1.08,0,0,0,.28.61l-.08.26a11.11,11.11,0,0,0-.34,1.22,4.11,4.11,0,0,0,.43,3.28,1.52,1.52,0,0,0,1.19.58,1.72,1.72,0,0,0,.89-.26,2.54,2.54,0,0,0,1.4-3.06,4,4,0,0,1,.23-2l.07,0A1.86,1.86,0,0,0,54,7.31a.77.77,0,0,1,.34.31c.07.11.08.13-.2.59a3.09,3.09,0,0,0-.49,1.15,1.25,1.25,0,0,0,.24,1,1.07,1.07,0,0,0,.81.37,1.36,1.36,0,0,0,.73-.24,2.78,2.78,0,0,0,0,.33,1.52,1.52,0,0,0-1.22,1.62c0,1.1,1,1.9,2.4,1.9A3.79,3.79,0,0,0,58.38,14l.45-.24A10.66,10.66,0,0,0,61.65,12a1.49,1.49,0,0,0,.65-.73h.1c.83,0,2.83-.23,3.45-1.34A1.42,1.42,0,0,0,66,9.19a10.31,10.31,0,0,1,.88-.7l4.39,0h.28l.24-.15a4.82,4.82,0,0,0,2.1-2.36,5.79,5.79,0,0,1,.68-1.51,3.3,3.3,0,0,0,.79.16,5.41,5.41,0,0,0,.79,2.73L76,7.45h0a1.9,1.9,0,0,0-.89-.26,1.32,1.32,0,0,0-.93.39,3.57,3.57,0,0,0-.49.65l0,.06a1.27,1.27,0,0,0-.85.51,2.35,2.35,0,0,0-1.31,1.3,2.4,2.4,0,0,0-.24.93,1.2,1.2,0,0,0-.29.75,1,1,0,0,0-.7.65c-.79.08-2.49.37-2.72,1.41a1.21,1.21,0,0,0-.74.78,1.08,1.08,0,0,0,.07.8,3.12,3.12,0,0,1-.27.4,1.11,1.11,0,0,0-.55-.15l-.19,0a1.14,1.14,0,0,0-.85-.36,1.42,1.42,0,0,0-1.27.83,2.82,2.82,0,0,0-.14,1.21s0,.1,0,.15a1.23,1.23,0,0,0-.79.89,1.16,1.16,0,0,0,.53,1.21l0,0,.22.16a1.17,1.17,0,0,0-.08.95,1.15,1.15,0,0,0,.58.65,1.15,1.15,0,0,0,0,.23,1.28,1.28,0,0,0-.82.62,1.38,1.38,0,0,0-.15,1,2.62,2.62,0,0,0-1.31,1.06h0a2.47,2.47,0,0,0-1.95,1.49,2.34,2.34,0,0,0-1,.51,6.37,6.37,0,0,0-1.91,3.5A5.46,5.46,0,0,0,57.89,33l0,0a1.74,1.74,0,0,0,.35,1.22,6.22,6.22,0,0,1,.56,2,1.58,1.58,0,0,1-.11.28,2.49,2.49,0,0,0-.64-.64,1.81,1.81,0,0,0-.72-1.47s0-.08,0-.12a2.26,2.26,0,0,0-.15-.68,1.75,1.75,0,0,0-.31-1.94c-.24-.24-.46-.5-.68-.76s-.43-.5-.65-.72a1.47,1.47,0,0,0-1.06-.46,1.82,1.82,0,0,0-1.18.5,2.46,2.46,0,0,0-1.88-1,4.35,4.35,0,0,0-1.1.19,1.19,1.19,0,0,0-1.87-.12l-.24,0h-.13c-.64,0-1.81.23-2.1,1.09a1.19,1.19,0,0,0,0,.15,1.05,1.05,0,0,0-.41.41H45.4a2.16,2.16,0,0,0-1.48-.91,1.1,1.1,0,0,0-.7.25,1.51,1.51,0,0,0-1-.42,1.18,1.18,0,0,0-.58.15,1.23,1.23,0,0,0-.35-.05,1.17,1.17,0,0,0-1,.5H40.1a1.22,1.22,0,0,0-1,.43,1.18,1.18,0,0,0-.27.74,1.46,1.46,0,0,1-.3.25l-.36,0a1.31,1.31,0,0,0-1.39,1l-.22.13-.36.21a1.21,1.21,0,0,0-.49,1.4,1.35,1.35,0,0,0-.47.81l-.15-.07a2,2,0,0,0-.2-.49s0-.08,0-.13a1.65,1.65,0,0,0-.58-1.21,3,3,0,0,1-.9-1.28c-.41-1.45-2.43-2-3.28-2.08h-.08a1.7,1.7,0,0,0-1.44.94l-.2-.12L28,30.76h0a2.6,2.6,0,0,0-1.38-1.92c-.19-.15-.81-.72-1.3-1.2L25,27.36h-3l-.3.39-.15.19-3.13,0c-.74-.27-2.88-1.05-3.4-1.17a5.38,5.38,0,0,1-1.14-.64l-.32-.22-.38.05-2.28.3h0a3.47,3.47,0,0,0-2-2.2A2,2,0,0,0,8.51,24H8.27L8.15,24a5.52,5.52,0,0,0-1.52-.75,2.14,2.14,0,0,0-.69-1.08L5.82,22c-.3-.27-.7-.62-.9-.83a1.45,1.45,0,0,0-.75-1.75v-.05a1.35,1.35,0,0,0-.84-1.18,4.73,4.73,0,0,0-1.06-1.28v-.16a3.08,3.08,0,0,0-.33-1.42c-.16-.27-.2-.43-.05-1a3.73,3.73,0,0,0-.53-2.91,3.42,3.42,0,0,1,.2-.61A4,4,0,0,0,1.82,10,13.49,13.49,0,0,0,1.9,8.63,18.21,18.21,0,0,1,2,6.74a4.38,4.38,0,0,0,.06-.54,1.09,1.09,0,0,0,.51-.69,1.16,1.16,0,0,0-.07-.74h.2a1.36,1.36,0,0,0,1.08-.54,2.54,2.54,0,0,0,.3-2.07.79.79,0,0,1,0-.23V1.86l35.49-.19h.1M1.46,2.89l0,.07,0-.07h.07M39.9,0c-.27,0-.29.67-.29.67L2.77.86A1.24,1.24,0,0,0,2.9,1c.44.47.09.83.24,1.39s0,1.36-.41,1.36a.36.36,0,0,1-.18-.68c.33-.18.15-.83-.18-.83s-.27-.22-.26-.48a3.09,3.09,0,0,1-.83.1A11.15,11.15,0,0,1,0,1.79.37.37,0,0,1,0,1.9,3.75,3.75,0,0,0,.71,3.67c.47.62.15,1,.59,1.24s.42.45.11.45H1.23c-.31,0-.06.39-.19,1.22S.92,9.3.83,9.87.09,11.35.47,11.94a2.77,2.77,0,0,1,.44,2.16,2,2,0,0,0,.15,1.75c.33.56.06,1.54.42,1.75a3.33,3.33,0,0,1,1,1.16c.33.53.62.21.68.74s.06.62.53.83.18.74.18,1,.62.83,1.39,1.51.12,1.24.68,1.24a3.31,3.31,0,0,1,1.66.68,1.14,1.14,0,0,0,.66.22h.24a1,1,0,0,1,.23,0A2.64,2.64,0,0,1,10,26.52a4.94,4.94,0,0,0,.3.84l3.07-.4a6.36,6.36,0,0,0,1.49.79c.54.13,3.45,1.2,3.45,1.2l3.8,0,.44-.57h2.09a17.48,17.48,0,0,0,1.52,1.36c.19.06.85.66.85,1a.9.9,0,0,0,.48.85,10,10,0,0,0,1.53.8h0c.16-.06.47-1.23,1-1.23h0c.57,0,2.12.47,2.38,1.36a4,4,0,0,0,1.27,1.8c.25.19.13.73.32,1s.16.82.38.82,1.31.67,1.83.67h.06a1.16,1.16,0,0,1,.54.21c.06-1.06-1-1.24-.39-1.72s0-1,.33-1.28,1-.47,1-.83.16-.33.43-.33l.37,0h0c.48,0,1.31-.79,1.26-1.1s0-.32.24-.32a2.13,2.13,0,0,1,.41.06h.11c.41,0,.39-.56.65-.56h.07a2.93,2.93,0,0,0,.56.19c.07,0,.11,0,.12-.13a.17.17,0,0,1,.18-.17.68.68,0,0,1,.48.31.9.9,0,0,0,.68.31c.21,0,.39-.08.42-.28s.07-.17.14-.17.48.29.75.59a.82.82,0,0,0,.74.32h.52c.43,0,.44-.15.46-.48,0,0,0-.07,0-.07s.66.85,1.14.9h.1c.41,0,0-.38-.4-.69s.09-.48-.27-.74.38-.59,1.07-.59h.09c.34,0,.51.06.63.06s.18-.06.32-.27.16-.17.23-.17.3.28.3.53c0,.09.07.12.18.12.35,0,1.13-.33,1.6-.33a1.36,1.36,0,0,1,1.24.89.42.42,0,0,0,.43.36.77.77,0,0,0,.49-.22c.32-.28.61-.58.9-.58a.49.49,0,0,1,.35.17c.41.42.83,1,1.33,1.48s-.24,1.13,0,1.51,0,.92.56,1.33.06,1.27.53,1.39.86.86.92,1.16.43.42.71.42a.26.26,0,0,0,.3-.24c.06-.5.53-1.1.59-1.57a6.37,6.37,0,0,0-.74-2.7c-.39-.53.09-.65-.39-1.27a4.5,4.5,0,0,1-.74-2.61A5.52,5.52,0,0,1,59.51,27c.5-.44,1.07-.21,1.19-.68s.74-1.07,1.1-1.07h.33c.23,0,.43,0,.47-.3s.65-.86,1.42-1,.33-.53.12-.89a.36.36,0,0,1,.2-.55.15.15,0,0,1,.13.08.53.53,0,0,0,.46.2.82.82,0,0,0,.46-.14c.3-.21,1-.77.33-.8s-.8-.3-.42-.44.06-.86-.47-.92-.36-.33,0-.65-.47-.86-.86-1.13.24-.41.53-.47.06-1.42.21-1.75a.42.42,0,0,1,.36-.24c.12,0,.19.08.09.24-.21.33-.5.86-.12,1.3a1.67,1.67,0,0,1,.36,1.6c-.06.28,0,.42,0,.42s.31-.28.57-.8c.44-.89.5-1.66.21-1.75s-.27-.67-.09-.67.09,0,.15.11.27.33.41.33.29-.12.54-.39c.5-.53,1-1.45.71-1.66s.09-.39.62-.39h.18a4.1,4.1,0,0,0,1.89-.54c.08-.16,0-.21-.24-.21-.43,0-1.26.23-1.62.23-.11,0-.18,0-.18-.08,0-.33,1.48-.65,2.16-.68s.44-.66.55-.66.06,0,.11.09a.66.66,0,0,0,.54.28,1.14,1.14,0,0,0,.58-.19c.39-.24.09-.92-.36-1s.33-.42.18-.68a1.5,1.5,0,0,1,.86-1.45c.56-.12.3-.47.77-.47s.56-.56,1-1a.31.31,0,0,1,.23-.1c.28,0,.63.34,1,.34a.63.63,0,0,0,.43-.18,7.67,7.67,0,0,1,1-.75,4.77,4.77,0,0,1-1.13-3.72c0-.39-1.22-.08-1.78-.51a.27.27,0,0,0-.17-.06c-.56,0-1.35,1.68-1.53,2.43s-1.66,1.74-1.66,1.74l-4.58,0a7.59,7.59,0,0,0-1.79,1.35l.05.07c.43.77-1.13,1.24-2.61,1.3a9.93,9.93,0,0,0-1.06.1,1.53,1.53,0,0,1,.08.53c0,.1-.17.21-.4.33-.23.46-2,1.35-3.06,1.88a2.76,2.76,0,0,1-1.27.31c-.76,0-1.4-.33-1.4-.9s.23-.64.47-.64a.61.61,0,0,1,.54.34.11.11,0,0,0,.11.07,1,1,0,0,0,.43-.23,1.17,1.17,0,0,1-.22-1c-.34-.15.19-1.48-.5-1.7a.6.6,0,0,0-.19,0c-.48,0-1,.52-1.16.52s-.09-.07-.07-.25c.12-.77,1.19-1.42.53-2.43a1.58,1.58,0,0,0-1.27-.79.79.79,0,0,0-.8.55c-.24.77-1.07.42-1.36,1a4.86,4.86,0,0,0-.36,2.85c.24.95-.06,1.42-.95,2a.73.73,0,0,1-.37.12c-.64,0-.93-1.19-.64-2.67.24-1.19.89-2.31.3-2.31s.77-1.42,2-1.72,2.79-.18,2.79-.53c0-.07.06-.12.15-.15a8.64,8.64,0,0,0-.76-.53.39.39,0,0,1-.16.21.35.35,0,0,1-.2.08c-.28,0-.3-.61-1-.61s-1.47.56-2.1.56A.86.86,0,0,1,50,5c-.71-.36-.36-.83-1-.83s.13-.84-.14-.84a.83.83,0,0,0-.33.13c-.78.44-1.88,1.4-2.61,1.4a.59.59,0,0,1-.42-.15.83.83,0,0,0-.58-.24c-.26,0-.51.1-.74.1a.53.53,0,0,1-.4-.16c-.46-.46,1.57-1.72,2.6-1.72h.11a1,1,0,0,0,.64-.27A5.35,5.35,0,0,0,45.64,2a.49.49,0,0,0-.39.14.55.55,0,0,1-.43.22A1,1,0,0,1,44.1,2a.37.37,0,0,0-.33-.15h-.19A.71.71,0,0,1,43,1.53a.7.7,0,0,0-.54-.29,1.72,1.72,0,0,0-.68.25l-.13,0a4.57,4.57,0,0,1-1-.42c-.51-.2-.12-.71-.55-1A.29.29,0,0,0,39.9,0Z"/></g></g></svg>