<svg xmlns="http://www.w3.org/2000/svg" viewBox="0 0 40.88 43.32"><defs><style>.cls-1{fill:#24b8eb;}</style></defs><title>URUGUAY2</title><g id="Слой_2" data-name="Слой 2"><g id="Слой_11" data-name="Слой 11"><path class="cls-1" d="M11.83,1c1.44,0,3,.9,4.38,2.61a14.64,14.64,0,0,1,2.36,4c.44,1.06.86,2.05,2,2.05l.28,0a3.11,3.11,0,0,0,1.71-1.36c.28-.35.86-1.07,1.13-1.07.09,0,.37.15.78.73,1.48,2.1,4.28,3.82,6.52,5.19a16.17,16.17,0,0,1,2.75,1.9,8.93,8.93,0,0,0,1.92,1.46C37.31,17.58,39,18.67,39,20.86c0,.62-.07,1.39-.16,2.29-.26,2.79-.61,6.56.86,10-.49.67-1,1.33-1.39,2-1.41,2-2.63,3.82-4.52,5A13.32,13.32,0,0,1,26.58,42a31.78,31.78,0,0,1-4.47-.38,8.53,8.53,0,0,0-1.22-.1,4.51,4.51,0,0,0-2.3.57,1.26,1.26,0,0,1-.64.21A5.56,5.56,0,0,1,16,41.71c-3.35-1.52-6.63-2.88-9.84-2.88a11.34,11.34,0,0,0-1.24.07l-.27,0A2.31,2.31,0,0,1,3,38c.75-2.18.78-3.25.15-3.87a2.55,2.55,0,0,0-1-.58C1.56,33.4.9,33.16,1,29.93a9.78,9.78,0,0,1,.92-4.19,15.16,15.16,0,0,0,1.29-6.51A31.16,31.16,0,0,1,4.9,10.42,18.36,18.36,0,0,0,6,5.19c0-1.07.94-2.38,1.95-3.59l.67,0a4.38,4.38,0,0,0,1.77-.32A3.53,3.53,0,0,1,11.83,1m0-1A4.54,4.54,0,0,0,10,.4,3.42,3.42,0,0,1,8.61.63,7.75,7.75,0,0,1,7.52.55C6.05,2.24,5,3.76,5,5.19c0,3.51-2.58,7.37-2.76,14S.2,24.74,0,29.89s1.66,4.24,2.39,5c.41.4-.09,2-.61,3.44.71.63,1.42,1.59,2.86,1.59l.39,0a10.25,10.25,0,0,1,1.13-.06c2.91,0,5.88,1.19,9.43,2.8a6.06,6.06,0,0,0,2.35.7c1.06,0,1.25-.78,2.94-.78a7.59,7.59,0,0,1,1.08.09,32.47,32.47,0,0,0,4.62.39,14.46,14.46,0,0,0,7.76-2c2.87-1.75,4.31-4.77,6.55-7.67C38.71,28.87,40,23.64,40,20.86c0-3.87-4.24-5-5.53-6.45s-7-3.88-9.21-7c-.59-.84-1.12-1.15-1.6-1.15-1.3,0-2.2,2.3-3,2.44h-.11c-1,0-.91-2.52-3.58-5.73C15.1.72,13.3,0,11.83,0Z"/></g></g></svg>