<svg xmlns="http://www.w3.org/2000/svg" viewBox="0 0 40.88 43.32"><defs><style>.cls-1{fill:#24b8eb;}</style></defs><title>URUGUAY</title><g id="Слой_2" data-name="Слой 2"><g id="Слой_11" data-name="Слой 11"><path class="cls-1" d="M40,20.86c0-3.87-4.24-5-5.53-6.45s-7-3.88-9.21-7-3.5,1.1-4.61,1.29S19.74,6.3,17,3,11.63-.34,10,.4A4.72,4.72,0,0,1,7.52.55C6.05,2.24,5,3.76,5,5.19c0,3.51-2.58,7.37-2.76,14S.2,24.74,0,29.89s1.66,4.24,2.39,5c.41.4-.09,2-.61,3.44C2.57,39,3.34,40.08,5,39.89c3.28-.36,6.55.92,10.56,2.73s2.54-.55,6.37,0,8.19.91,12.37-1.64c2.87-1.75,4.31-4.77,6.55-7.67C38.71,28.87,40,23.64,40,20.86Z"/></g></g></svg>