<svg xmlns="http://www.w3.org/2000/svg" viewBox="0 0 43.66 33.31"><defs><style>.cls-1{fill:#9db0c1;}</style></defs><title>Warehousing</title><g id="Слой_2" data-name="Слой 2"><g id="Слой_11" data-name="Слой 11"><path class="cls-1" d="M37.54,33.31H25.2a2.71,2.71,0,0,1-1.92-.76,2,2,0,0,1-.62-1.44V29.38a.48.48,0,0,1,.48-.48h0a.48.48,0,0,1,.48.48V31.1a1.08,1.08,0,0,0,.33.76,1.75,1.75,0,0,0,1.23.48H37.54a1.58,1.58,0,0,0,1.57-1.57V18a11.3,11.3,0,0,1,.37-3.1,8.89,8.89,0,0,1,2-2.43l.82-.73a.94.94,0,0,0,.38-.8.94.94,0,0,0-.59-.66L23.47,1.29a4.37,4.37,0,0,0-3.28,0L1.56,10.24A.94.94,0,0,0,1,10.9a.94.94,0,0,0,.38.8l.81.72a8.9,8.9,0,0,1,2,2.43A11.23,11.23,0,0,1,4.54,18V30.77a1.58,1.58,0,0,0,1.57,1.57H18.46a1.71,1.71,0,0,0,1.21-.47,1.11,1.11,0,0,0,.34-.79V29.33a.48.48,0,0,1,.48-.49h0a.48.48,0,0,1,.48.48v1.75a2.07,2.07,0,0,1-.62,1.48,2.68,2.68,0,0,1-1.9.76H6.11a2.54,2.54,0,0,1-2.54-2.54V18a10.54,10.54,0,0,0-.31-2.76,8.26,8.26,0,0,0-1.75-2.07l-.81-.72A1.89,1.89,0,0,1,0,10.76a1.89,1.89,0,0,1,1.13-1.4L19.77.42a5.31,5.31,0,0,1,4.12,0L42.51,9.37a1.89,1.89,0,0,1,1.13,1.4,1.89,1.89,0,0,1-.69,1.66l-.82.73a8.23,8.23,0,0,0-1.74,2.06A10.55,10.55,0,0,0,40.08,18V30.77a2.54,2.54,0,0,1-2.54,2.54Zm0,0"/><path class="cls-1" d="M30.72,24.81H18.83V19.88a1.07,1.07,0,0,1,1.06-1.06H25.5a1.06,1.06,0,0,1,1.06,1.06v1.93a.48.48,0,0,0,1,0V19.88a2,2,0,0,0-2-2H19.9a2,2,0,0,0-2,2v4.93H12.94a2,2,0,0,0-2,2v1.93a.48.48,0,0,0,1,0V26.84a1.06,1.06,0,0,1,1.06-1.06H30.72a1.06,1.06,0,0,1,1.06,1.06v1.93a.48.48,0,0,0,1,0V26.84a2,2,0,0,0-2-2Zm0,0"/></g></g></svg>